<?xml version="1.0" encoding="UTF-8" standalone="no"?>
<!-- Created with Inkscape (http://www.inkscape.org/) -->

<svg
   version="1.1"
   id="svg18964"
   width="96"
   height="96"
   viewBox="0 0 96 96"
   xmlns="http://www.w3.org/2000/svg"
   xmlns:svg="http://www.w3.org/2000/svg">
  <defs
     id="defs18968" />
  <g
     id="g18970"
     transform="translate(1.989572,-0.20299025)">
    <g
       id="g37408"
       transform="translate(-1.9895721,0.20299025)">
      <path
         style="fill:#4b16a7;fill-opacity:1"
         d="M 78,93.5 V 93 h 0.5 q 0.5,0 1,0 0.5,0 1,0 H 81 v 0.5 q 0,0.5 0,1 0,0.5 0,1 V 96 H 80.5 80 79.5 79 78.5 78 v -0.5 q 0,-0.5 0,-1 0,-0.5 0,-1"
         id="path37530" />
      <path
         style="fill:#030513;fill-opacity:1"
         d="M 21,93.5 V 93 h 0.5 q 0.5,0 1,0 0.5,0 0.875,0.125 0.375,0.125 0.5,0.5 Q 24,94 24,94.5 q 0,0.5 0,1 V 96 H 23.5 23 22.5 22 21.5 21 v -0.5 q 0,-0.5 0,-1 0,-0.5 0,-1"
         id="path37528" />
      <path
         style="fill:#4b16a7;fill-opacity:1"
         d="m 15.125,93.625 q 0.125,-0.375 0.5,-0.5 Q 16,93 16.5,93 q 0.5,0 0.875,0.125 0.375,0.125 0.5,0.5 Q 18,94 18,94.5 q 0,0.5 0,1 V 96 H 17.5 17 16.5 16 15.5 15 v -0.5 q 0,-0.5 0,-1 0,-0.5 0.125,-0.875"
         id="path37526" />
      <path
         style="fill:#360094;fill-opacity:1"
         d="m 72.125,90.625 q 0.125,-0.375 0.5,-0.5 Q 73,90 73.5,90 74,90 74.375,89.875 L 74.75,89.75 74.46875,89.84375 74.1875,89.9375 74.375,89.875 q 0.1875,-0.0625 0.3125,-0.1875 l 0.125,-0.125 -0.0625,0.0625 -0.0625,0.0625 0.28125,0.28125 Q 75.25,90.25 75.125,90.625 75,91 75,91.5 q 0,0.5 0,1 0,0.5 0.5,0.5 0.5,0 1,0 0.5,0 1,0 H 78 v 0.5 q 0,0.5 0,1 0,0.5 0,1 V 96 H 77.5 77 76.5 76 75.5 75 74.5 74 73.5 73 72.5 72 71.5 71 70.5 70 69.5 69 v -0.5 q 0,-0.5 0,-1 0,-0.5 0.125,-0.875 0.125,-0.375 0.5,-0.5 Q 70,93 70.5,93 q 0.5,0 0.875,-0.125 0.375,-0.125 0.5,-0.5 Q 72,92 72,91.5 72,91 72.125,90.625"
         id="path37524" />
      <path
         style="fill:#16b830;fill-opacity:1"
         d="M 57,90.5 V 90 h 0.5 q 0.5,0 1,0 0.5,0 1,0 H 60 v 0.5 q 0,0.5 0,1 0,0.5 -0.125,0.875 -0.125,0.375 -0.5,0.5 Q 59,93 58.5,93 58,93 57.5,93 H 57 v -0.5 q 0,-0.5 0,-1 0,-0.5 0,-1 M 56.875,93 H 57 57.375 57.75 57.5 q -0.25,0 -0.5,0 h -0.25 0.125 m 3.25,-3 H 60 59.625 59.25 59.5 q 0.25,0 0.5,0 h 0.25 -0.125"
         id="path37522" />
      <path
         style="fill:#007c14;fill-opacity:1"
         d="M 54,90.5 V 90 h 0.5 q 0.5,0 1,0 0.5,0 1,0 H 57 v 0.5 q 0,0.5 0,1 0,0.5 0,1 V 93 h -0.5 q -0.5,0 -1,0 -0.5,0 -0.875,-0.125 -0.375,-0.125 -0.5,-0.5 Q 54,92 54,91.5 54,91 54,90.5 M 56.625,93 H 57 57.125 57.25 57 q -0.25,0 -0.5,0 h -0.25 0.375"
         id="path37520" />
      <path
         style="fill:#4b16a7;fill-opacity:1"
         d="m 48,90.5 q 0,-0.5 0.5,-0.5 0.5,0 1,0 0.5,0 0.875,0.125 0.375,0.125 0.65625,-0.15625 L 51.3125,89.6875 51.25,89.625 l -0.0625,-0.0625 0.125,0.125 q 0.125,0.125 0.3125,0.1875 L 51.8125,89.9375 51.53125,89.84375 51.25,89.75 51.625,89.875 Q 52,90 52.5,90 q 0.5,0 1,0 H 54 v 0.5 q 0,0.5 0,1 0,0.5 0.125,0.875 L 54.25,92.75 54.15625,92.46875 54.0625,92.1875 54.125,92.375 q 0.0625,0.1875 0.1875,0.3125 l 0.125,0.125 L 54.375,92.75 54.3125,92.6875 54.03125,92.96875 Q 53.75,93.25 53.375,93.125 53,93 52.5,93 q -0.5,0 -1,0 -0.5,0 -0.5,0.5 0,0.5 0,1 0,0.5 0,1 V 96 H 50.5 50 49.5 49 48.5 48 v -0.5 q 0,-0.5 0,-1 0,-0.5 0,-1 0,-0.5 0,-1 0,-0.5 0,-1 0,-0.5 0,-1"
         id="path37518" />
      <path
         style="fill:#030513;fill-opacity:1"
         d="M 18,90.5 V 90 h 0.5 q 0.5,0 1,0 0.5,0 0.875,0.125 0.375,0.125 0.5,0.5 Q 21,91 21,91.5 q 0,0.5 0,1 V 93 h -0.5 q -0.5,0 -1,0 -0.5,0 -0.875,-0.125 -0.375,-0.125 -0.5,-0.5 Q 18,92 18,91.5 q 0,-0.5 0,-1"
         id="path37516" />
      <path
         style="fill:#360094;fill-opacity:1"
         d="m 15.125,90.625 q 0.125,-0.375 0.5,-0.5 Q 16,90 16.5,90 q 0.5,0 1,0 H 18 v 0.5 q 0,0.5 0,1 0,0.5 0.125,0.875 0.125,0.375 0.5,0.5 Q 19,93 19.5,93 q 0.5,0 1,0 H 21 v 0.5 q 0,0.5 0,1 0,0.5 0,1 V 96 H 20.5 20 19.5 19 18.5 18 v -0.5 q 0,-0.5 0,-1 0,-0.5 -0.125,-0.875 -0.125,-0.375 -0.5,-0.5 Q 17,93 16.5,93 16,93 15.625,93.125 15.25,93.25 15.125,93.625 15,94 15,94.5 q 0,0.5 0,1 V 96 H 14.5 14 13.5 13 12.5 12 v -0.5 q 0,-0.5 0,-1 0,-0.5 0.125,-0.875 0.125,-0.375 0.5,-0.5 Q 13,93 13.5,93 q 0.5,0 0.875,-0.125 0.375,-0.125 0.5,-0.5 Q 15,92 15,91.5 15,91 15.125,90.625"
         id="path37514" />
      <path
         style="fill:#360094;fill-opacity:1"
         d="M 77.875,87.625 Q 77.75,87.25 78.03125,86.96875 L 78.3125,86.6875 78.25,86.625 l -0.0625,-0.0625 0.125,0.125 q 0.125,0.125 0.3125,0.1875 L 78.8125,86.9375 78.53125,86.84375 78.25,86.75 78.625,86.875 Q 79,87 79.5,87 q 0.5,0 0.875,0.125 0.375,0.125 0.5,0.5 Q 81,88 81,88.5 q 0,0.5 0,1 0,0.5 0,1 0,0.5 0,1 0,0.5 0,1 V 93 h -0.5 q -0.5,0 -1,0 -0.5,0 -1,0 H 78 v -0.5 q 0,-0.5 0,-1 0,-0.5 0,-1 0,-0.5 0,-1 0,-0.5 0,-1 0,-0.5 -0.125,-0.875"
         id="path37512" />
      <path
         style="fill:#007c14;fill-opacity:1"
         d="M 57,87.5 V 87 h 0.5 q 0.5,0 1,0 0.5,0 1,0 0.5,0 1,0 0.5,0 1,0 0.5,0 0.875,0.125 0.375,0.125 0.5,0.5 Q 63,88 63,88.5 q 0,0.5 -0.125,0.875 -0.125,0.375 -0.5,0.5 Q 62,90 61.5,90 q -0.5,0 -1,0 -0.5,0 -1,0 -0.5,0 -1,0 -0.5,0 -1,0 H 57 v -0.5 q 0,-0.5 0,-1 0,-0.5 0,-1 m 0,-0.625 V 87 87.375 87.75 87.5 q 0,-0.25 0,-0.5 v -0.25 0.125"
         id="path37510" />
      <path
         style="fill:#4dc761;fill-opacity:1"
         d="m 51.125,87.625 q 0.125,-0.375 0.5,-0.5 Q 52,87 52.5,87 q 0.5,0 1,0 H 54 53.625 53.25 53.5 q 0.25,0 0.375,-0.125 L 54,86.75 53.9375,86.8125 53.875,86.875 53.9375,87.4375 Q 54,88 54,88.5 q 0,0.5 0,1 V 90 h -0.5 q -0.5,0 -1,0 -0.5,0 -0.875,-0.125 -0.375,-0.125 -0.5,-0.5 Q 51,89 51,88.5 51,88 51.125,87.625"
         id="path37508" />
      <path
         style="fill:#4b16a7;fill-opacity:1"
         d="m 75.125,84.625 q 0.125,-0.375 0.5,-0.5 Q 76,84 76.5,84 q 0.5,0 0.875,0.125 0.375,0.125 0.5,0.5 Q 78,85 78,85.5 78,86 78.125,86.375 L 78.25,86.75 78.15625,86.46875 78.0625,86.1875 78.125,86.375 q 0.0625,0.1875 0.1875,0.3125 l 0.125,0.125 L 78.375,86.75 78.3125,86.6875 78.03125,86.96875 Q 77.75,87.25 77.875,87.625 78,88 78,88.5 q 0,0.5 0,1 0,0.5 0,1 0,0.5 0,1 0,0.5 0,1 V 93 h -0.5 q -0.5,0 -1,0 -0.5,0 -1,0 Q 75,93 75,92.5 75,92 75,91.5 75,91 75.125,90.625 75.25,90.25 74.96875,89.96875 L 74.6875,89.6875 74.625,89.75 l -0.0625,0.0625 0.125,-0.125 q 0.125,-0.125 0.1875,-0.3125 L 74.9375,89.1875 74.84375,89.46875 74.75,89.75 74.875,89.375 Q 75,89 75,88.5 q 0,-0.5 0,-1 0,-0.5 0,-1 0,-0.5 0,-1 0,-0.5 0.125,-0.875"
         id="path37506" />
      <path
         style="fill:#4dc761;fill-opacity:1"
         d="M 57,84.5 V 84 h 0.5 q 0.5,0 1,0 0.5,0 0.875,0.125 0.375,0.125 0.5,0.5 Q 60,85 60,85.5 q 0,0.5 0,1 V 87 h -0.5 q -0.5,0 -1,0 -0.5,0 -1,0 H 57 v -0.5 q 0,-0.5 0,-1 0,-0.5 0,-1 m 0,2.125 V 87 87.125 87.25 87 q 0,-0.25 0,-0.5 v -0.25 0.375 M 59.625,87 H 60 60.125 60.25 60 q -0.25,0 -0.5,0 h -0.25 0.375 m -2.25,-3 H 57 56.875 56.75 57 q 0.25,0 0.5,0 h 0.25 -0.375"
         id="path37504" />
      <path
         style="fill:#16b830;fill-opacity:1"
         d="m 54.125,84.625 q 0.125,-0.375 0.5,-0.5 Q 55,84 55.5,84 q 0.5,0 1,0 H 57 v 0.5 q 0,0.5 0,1 0,0.5 0,1 0,0.5 0,1 0,0.5 0,1 0,0.5 0,1 V 90 h -0.5 q -0.5,0 -1,0 -0.5,0 -1,0 H 54 v -0.5 q 0,-0.5 0,-1 0,-0.5 -0.0625,-1.0625 L 53.875,86.875 53.8125,86.9375 53.75,87 53.875,86.875 Q 54,86.75 54,86.5 V 86.25 86.625 87 86.5 q 0,-0.5 0,-1 0,-0.5 0.125,-0.875 m 3,-0.625 H 57 56.625 56.25 56.5 q 0.25,0 0.5,0 h 0.25 -0.125"
         id="path37502" />
      <path
         style="fill:#360094;fill-opacity:1"
         d="m 18.125,84.625 q 0.125,-0.375 0.5,-0.5 Q 19,84 19.5,84 20,84 20.375,83.875 L 20.75,83.75 20.46875,83.84375 20.1875,83.9375 20.375,83.875 q 0.1875,-0.0625 0.3125,-0.1875 l 0.125,-0.125 -0.0625,0.0625 -0.0625,0.0625 0.28125,0.28125 Q 21.25,84.25 21.125,84.625 21,85 21,85.5 q 0,0.5 0,1 0,0.5 0.5,0.5 0.5,0 1,0 0.5,0 1,0 0.5,0 0.5,0.5 0,0.5 0,1 0,0.5 0,1 0,0.5 0.5,0.5 0.5,0 1,0 0.5,0 1,0 0.5,0 0.5,0.5 0,0.5 0,1 0,0.5 0,1 0,0.5 0,1 0,0.5 0,1 0,0.5 0,1 V 96 H 26.5 26 25.5 25 24.5 24 v -0.5 q 0,-0.5 0,-1 0,-0.5 -0.125,-0.875 -0.125,-0.375 -0.5,-0.5 Q 23,93 22.5,93 22,93 21.5,93 H 21 v -0.5 q 0,-0.5 0,-1 0,-0.5 -0.125,-0.875 -0.125,-0.375 -0.5,-0.5 Q 20,90 19.5,90 19,90 18.5,90 H 18 v -0.5 q 0,-0.5 0,-1 0,-0.5 0,-1 0,-0.5 0,-1 0,-0.5 0,-1 0,-0.5 0.125,-0.875"
         id="path37500" />
      <path
         style="fill:#4b16a7;fill-opacity:1"
         d="M 42,81.5 V 81 h 0.5 q 0.5,0 1,0 0.5,0 1,0 H 45 v 0.5 q 0,0.5 0,1 0,0.5 0,1 0,0.5 0,1 0,0.5 0,1 0,0.5 0,1 0,0.5 0,1 0,0.5 0,1 0,0.5 0,1 0,0.5 0,1 0,0.5 0,1 0,0.5 0,1 0,0.5 0,1 0,0.5 0,1 0,0.5 0,1 V 96 H 44.5 44 43.5 43 42.5 42 41.5 41 40.5 40 39.5 39 38.5 38 37.5 37 36.5 36 v -0.5 q 0,-0.5 0,-1 0,-0.5 0,-1 0,-0.5 0,-1 0,-0.5 0,-1 0,-0.5 0,-1 0,-0.5 0.5,-0.5 0.5,0 1,0 0.5,0 1,0 0.5,0 0.5,-0.5 0,-0.5 0,-1 0,-0.5 0,-1 0,-0.5 0.5,-0.5 0.5,0 1,0 0.5,0 1,0 0.5,0 0.5,-0.5 0,-0.5 0,-1 0,-0.5 0,-1 0,-0.5 0,-1 0,-0.5 0,-1 0,-0.5 0,-1"
         id="path37498" />
      <path
         style="fill:#360094;fill-opacity:1"
         d="M 27,81.5 V 81 h 0.5 q 0.5,0 1,0 0.5,0 0.875,-0.125 L 29.75,80.75 29.46875,80.84375 29.1875,80.9375 29.375,80.875 q 0.1875,-0.0625 0.3125,-0.1875 l 0.125,-0.125 -0.0625,0.0625 -0.0625,0.0625 0.28125,0.28125 Q 30.25,81.25 30.625,81.125 31,81 31.5,81 q 0.5,0 1,0 0.5,0 0.5,0.5 0,0.5 0,1 0,0.5 0,1 0,0.5 0.5,0.5 0.5,0 1,0 0.5,0 1,0 0.5,0 0.5,-0.5 0,-0.5 0,-1 Q 36,82 35.875,81.625 35.75,81.25 36.03125,80.96875 L 36.3125,80.6875 36.25,80.625 l -0.0625,-0.0625 0.125,0.125 q 0.125,0.125 0.3125,0.1875 L 36.8125,80.9375 36.53125,80.84375 36.25,80.75 36.625,80.875 Q 37,81 37.5,81 q 0.5,0 1,0 0.5,0 1,0 0.5,0 1,0 0.5,0 1,0 H 42 v 0.5 q 0,0.5 0,1 0,0.5 0,1 0,0.5 0,1 0,0.5 0,1 0,0.5 0,1 0,0.5 -0.5,0.5 -0.5,0 -1,0 -0.5,0 -1,0 -0.5,0 -0.5,0.5 0,0.5 0,1 0,0.5 0,1 0,0.5 -0.5,0.5 -0.5,0 -1,0 -0.5,0 -1,0 -0.5,0 -0.5,0.5 0,0.5 0,1 0,0.5 0,1 0,0.5 0,1 0,0.5 0,1 0,0.5 0,1 V 96 H 35.5 35 34.5 34 33.5 33 32.5 32 31.5 31 30.5 30 v -0.5 q 0,-0.5 0,-1 0,-0.5 0,-1 0,-0.5 0,-1 0,-0.5 0,-1 0,-0.5 0,-1 0,-0.5 0,-1 0,-0.5 0,-1 0,-0.5 0,-1 0,-0.5 -0.5,-0.5 -0.5,0 -1,0 -0.5,0 -1,0 -0.5,0 -0.5,-0.5 0,-0.5 0,-1 0,-0.5 0,-1 0,-0.5 0,-1 0,-0.5 0,-1 0,-0.5 0,-1"
         id="path37496" />
      <path
         style="fill:#4b16a7;fill-opacity:1"
         d="m 21.125,81.625 q 0.125,-0.375 0.5,-0.5 Q 22,81 22.5,81 q 0.5,0 1,0 0.5,0 1,0 0.5,0 1,0 0.5,0 1,0 H 27 v 0.5 q 0,0.5 0,1 0,0.5 0,1 0,0.5 0,1 0,0.5 0,1 0,0.5 0,1 0,0.5 0.5,0.5 0.5,0 1,0 0.5,0 1,0 0.5,0 0.5,0.5 0,0.5 0,1 0,0.5 0,1 0,0.5 0,1 0,0.5 0,1 0,0.5 0,1 0,0.5 0,1 0,0.5 0,1 0,0.5 0,1 V 96 H 29.5 29 28.5 28 27.5 27 v -0.5 q 0,-0.5 0,-1 0,-0.5 0,-1 0,-0.5 0,-1 0,-0.5 0,-1 0,-0.5 0,-1 0,-0.5 -0.5,-0.5 -0.5,0 -1,0 -0.5,0 -1,0 -0.5,0 -0.5,-0.5 0,-0.5 0,-1 0,-0.5 0,-1 0,-0.5 -0.5,-0.5 -0.5,0 -1,0 -0.5,0 -1,0 Q 21,87 21,86.5 21,86 21,85.5 21,85 21.125,84.625 21.25,84.25 20.96875,83.96875 L 20.6875,83.6875 20.625,83.75 l -0.0625,0.0625 0.125,-0.125 q 0.125,-0.125 0.1875,-0.3125 L 20.9375,83.1875 20.84375,83.46875 20.75,83.75 20.875,83.375 Q 21,83 21,82.5 21,82 21.125,81.625"
         id="path37494" />
      <path
         style="fill:#4b16a7;fill-opacity:1"
         d="M 63,78.5 V 78 h 0.5 q 0.5,0 1,0 0.5,0 1,0 H 66 65.625 65.25 65.5 q 0.25,0 0.375,-0.125 L 66,77.75 65.9375,77.8125 65.875,77.875 65.9375,78.4375 Q 66,79 66,79.5 q 0,0.5 0,1 0,0.5 0.5,0.5 0.5,0 1,0 0.5,0 0.875,0.125 0.375,0.125 0.5,0.5 Q 69,82 69,82.5 q 0,0.5 -0.125,0.875 -0.125,0.375 -0.5,0.5 Q 68,84 67.5,84 q -0.5,0 -1,0 -0.5,0 -1,0 -0.5,0 -1,0 -0.5,0 -1,0 -0.5,0 -0.5,-0.5 0,-0.5 0,-1 0,-0.5 0,-1 0,-0.5 0,-1 0,-0.5 0,-1 0,-0.5 0,-1"
         id="path37492" />
      <path
         style="fill:#360094;fill-opacity:1"
         d="m 60.125,78.625 q 0.125,-0.375 0.5,-0.5 Q 61,78 61.5,78 q 0.5,0 1,0 H 63 v 0.5 q 0,0.5 0,1 0,0.5 0,1 0,0.5 0,1 0,0.5 0,1 0,0.5 0,1 0,0.5 0.5,0.5 0.5,0 1,0 0.5,0 1,0 0.5,0 1,0 0.5,0 1,0 0.5,0 0.875,-0.125 0.375,-0.125 0.5,-0.5 Q 69,83 69,82.5 69,82 68.875,81.625 68.75,81.25 68.375,81.125 68,81 67.5,81 67,81 66.5,81 66,81 66,80.5 66,80 66,79.5 66,79 65.9375,78.4375 L 65.875,77.875 66.4375,77.9375 Q 67,78 67.5,78 q 0.5,0 0.875,0.125 0.375,0.125 0.5,0.5 Q 69,79 69,79.5 q 0,0.5 0.125,0.875 0.125,0.375 0.5,0.5 Q 70,81 70.5,81 q 0.5,0 0.875,0.125 0.375,0.125 0.5,0.5 Q 72,82 72,82.5 q 0,0.5 -0.125,0.875 -0.125,0.375 -0.5,0.5 Q 71,84 70.5,84 70,84 69.625,84.125 69.25,84.25 69.125,84.625 69,85 69,85.5 q 0,0.5 0,1 0,0.5 0,1 0,0.5 0,1 0,0.5 -0.125,0.875 -0.125,0.375 -0.5,0.5 Q 68,90 67.5,90 67,90 66.625,90.125 66.25,90.25 66.125,90.625 66,91 66,91.5 q 0,0.5 -0.125,0.875 -0.125,0.375 -0.5,0.5 Q 65,93 64.5,93 64,93 63.625,93.125 63.25,93.25 63.125,93.625 63,94 63,94.5 q 0,0.5 0,1 V 96 H 62.5 62 61.5 61 60.5 60 59.5 59 58.5 58 57.5 57 56.5 56 55.5 55 54.5 54 53.5 53 52.5 52 51.5 51 v -0.5 q 0,-0.5 0,-1 0,-0.5 0,-1 0,-0.5 0.5,-0.5 0.5,0 1,0 0.5,0 0.875,0.125 0.375,0.125 0.65625,-0.15625 L 54.3125,92.6875 54.25,92.625 l -0.0625,-0.0625 0.125,0.125 q 0.125,0.125 0.3125,0.1875 L 54.8125,92.9375 54.53125,92.84375 54.25,92.75 54.625,92.875 Q 55,93 55.5,93 q 0.5,0 1,0 0.5,0 1,0 0.5,0 1,0 0.5,0 0.875,-0.125 0.375,-0.125 0.5,-0.5 Q 60,92 60,91.5 60,91 60,90.5 V 90 h 0.5 q 0.5,0 1,0 0.5,0 0.875,-0.125 0.375,-0.125 0.5,-0.5 Q 63,89 63,88.5 63,88 62.875,87.625 62.75,87.25 62.375,87.125 62,87 61.5,87 61,87 60.5,87 H 60 v -0.5 q 0,-0.5 0,-1 0,-0.5 -0.125,-0.875 -0.125,-0.375 -0.5,-0.5 Q 59,84 58.5,84 q -0.5,0 -1,0 -0.5,0 -1,0 -0.5,0 -1,0 -0.5,0 -0.875,0.125 -0.375,0.125 -0.5,0.5 Q 54,85 54,85.5 q 0,0.5 0,1 0,0.5 -0.5,0.5 -0.5,0 -1,0 -0.5,0 -0.875,0.125 -0.375,0.125 -0.5,0.5 Q 51,88 51,88.5 51,89 51.125,89.375 L 51.25,89.75 51.15625,89.46875 51.0625,89.1875 51.125,89.375 q 0.0625,0.1875 0.1875,0.3125 l 0.125,0.125 L 51.375,89.75 51.3125,89.6875 51.03125,89.96875 Q 50.75,90.25 50.375,90.125 50,90 49.5,90 q -0.5,0 -1,0 -0.5,0 -0.5,0.5 0,0.5 0,1 0,0.5 0,1 0,0.5 0,1 0,0.5 0,1 0,0.5 0,1 V 96 H 47.5 47 46.5 46 45.5 45 v -0.5 q 0,-0.5 0,-1 0,-0.5 0,-1 0,-0.5 0,-1 0,-0.5 0,-1 0,-0.5 0,-1 0,-0.5 0,-1 0,-0.5 0,-1 0,-0.5 0,-1 0,-0.5 0,-1 0,-0.5 0,-1 0,-0.5 0,-1 0,-0.5 0,-1 0,-0.5 0,-1 0,-0.5 0,-1 V 81 h 0.5 q 0.5,0 1,0 0.5,0 1,0 0.5,0 1,0 0.5,0 1,0 0.5,0 1,0 0.5,0 1,0 0.5,0 1,0 0.5,0 1,0 0.5,0 1,0 0.5,0 1,0 0.5,0 1,0 0.5,0 1,0 0.5,0 1,0 0.5,0 0.875,-0.125 0.375,-0.125 0.5,-0.5 Q 60,80 60,79.5 60,79 60.125,78.625 M 59.875,87 H 60 60.375 60.75 60.5 q -0.25,0 -0.5,0 h -0.25 0.125 m 0.5,3 H 60 59.875 59.75 60 q 0.25,0 0.5,0 h 0.25 -0.375"
         id="path37490" />
      <path
         style="fill:#4b16a7;fill-opacity:1"
         d="m 30.125,78.625 q 0.125,-0.375 0.5,-0.5 Q 31,78 31.5,78 32,78 32.5625,77.9375 L 33.125,77.875 33.0625,77.8125 33,77.75 33.125,77.875 Q 33.25,78 33.5,78 H 33.75 33.375 33 33.5 q 0.5,0 1,0 0.5,0 0.875,0.125 0.375,0.125 0.5,0.5 Q 36,79 36,79.5 36,80 36.125,80.375 L 36.25,80.75 36.15625,80.46875 36.0625,80.1875 36.125,80.375 q 0.0625,0.1875 0.1875,0.3125 l 0.125,0.125 L 36.375,80.75 36.3125,80.6875 36.03125,80.96875 Q 35.75,81.25 35.875,81.625 36,82 36,82.5 q 0,0.5 0,1 0,0.5 -0.5,0.5 -0.5,0 -1,0 -0.5,0 -1,0 -0.5,0 -0.5,-0.5 0,-0.5 0,-1 0,-0.5 0,-1 Q 33,81 32.5,81 32,81 31.5,81 31,81 30.625,81.125 30.25,81.25 29.96875,80.96875 L 29.6875,80.6875 29.625,80.75 l -0.0625,0.0625 0.125,-0.125 q 0.125,-0.125 0.1875,-0.3125 L 29.9375,80.1875 29.84375,80.46875 29.75,80.75 29.875,80.375 Q 30,80 30,79.5 30,79 30.125,78.625"
         id="path37488" />
      <path
         style="fill:#d8d3d3;fill-opacity:1"
         d="m 33.125,75.625 q 0.125,-0.375 0.5,-0.5 Q 34,75 34.5,75 q 0.5,0 1,0 H 36 35.625 35.25 35.5 q 0.25,0 0.375,-0.125 L 36,74.75 35.9375,74.8125 35.875,74.875 36.4375,74.9375 Q 37,75 37.5,75 q 0.5,0 0.875,0.125 0.375,0.125 0.5,0.5 Q 39,76 39,76.5 q 0,0.5 0.125,0.875 0.125,0.375 0.5,0.5 Q 40,78 40.5,78 q 0.5,0 1,0 0.5,0 1,0 0.5,0 1,0 0.5,0 1,0 0.5,0 1,0 0.5,0 1,0 0.5,0 1,0 0.5,0 1,0 0.5,0 1,0 0.5,0 1,0 0.5,0 1,0 0.5,0 1,0 0.5,0 1,0 0.5,0 1,0 0.5,0 1,0 0.5,0 0.875,-0.125 0.375,-0.125 0.5,-0.5 Q 57,77 57,76.5 57,76 57.125,75.625 57.25,75.25 57.625,75.125 58,75 58.5,75 q 0.5,0 1,0 0.5,0 1,0 0.5,0 1,0 0.5,0 1.0625,-0.0625 L 63.125,74.875 63.0625,74.8125 63,74.75 63.125,74.875 Q 63.25,75 63.5,75 H 63.75 63.375 63 63.5 q 0.5,0 1,0 0.5,0 0.875,0.125 0.375,0.125 0.5,0.5 Q 66,76 66,76.5 q 0,0.5 0,1 0,0.5 -0.5,0.5 -0.5,0 -1,0 -0.5,0 -1,0 H 63 62.5 q -0.5,0 -1,0 -0.5,0 -0.875,0.125 -0.375,0.125 -0.5,0.5 Q 60,79 60,79.5 q 0,0.5 -0.125,0.875 -0.125,0.375 -0.5,0.5 Q 59,81 58.5,81 q -0.5,0 -1,0 -0.5,0 -1,0 -0.5,0 -1,0 -0.5,0 -1,0 -0.5,0 -1,0 -0.5,0 -1,0 -0.5,0 -1,0 -0.5,0 -1,0 -0.5,0 -1,0 -0.5,0 -1,0 -0.5,0 -1,0 -0.5,0 -1,0 -0.5,0 -1,0 H 45 44.5 q -0.5,0 -1,0 -0.5,0 -1,0 H 42 41.5 q -0.5,0 -1,0 -0.5,0 -1,0 -0.5,0 -1,0 -0.5,0 -1,0 -0.5,0 -0.875,-0.125 -0.375,-0.125 -0.5,-0.5 Q 36,80 36,79.5 36,79 35.875,78.625 35.75,78.25 35.375,78.125 35,78 34.5,78 34,78 33.5,78 33,78 33,77.5 q 0,-0.5 0,-1 0,-0.5 0.125,-0.875"
         id="path37486" />
      <path
         style="fill:#daa866;fill-opacity:1"
         d="m 36.125,72.625 q 0.125,-0.375 0.5,-0.5 Q 37,72 37.5,72 q 0.5,0 1,0 0.5,0 1,0 0.5,0 1,0 0.5,0 0.875,0.125 0.375,0.125 0.5,0.5 Q 42,73 42,73.5 q 0,0.5 0.125,0.875 0.125,0.375 0.5,0.5 Q 43,75 43.5,75 q 0.5,0 1,0 0.5,0 1,0 0.5,0 1,0 0.5,0 1,0 0.5,0 1,0 0.5,0 1,0 0.5,0 1,0 0.5,0 1,0 0.5,0 1,0 0.5,0 1,0 0.5,0 1,0 0.5,0 1,0 0.5,0 0.875,-0.125 0.375,-0.125 0.5,-0.5 Q 57,74 57,73.5 57,73 57.125,72.625 57.25,72.25 57.625,72.125 58,72 58.5,72 q 0.5,0 1,0 0.5,0 1,0 0.5,0 1,0 0.5,0 0.875,0.125 0.375,0.125 0.5,0.5 Q 63,73 63,73.5 q 0,0.5 0,1 V 75 74.625 74.25 74.5 q 0,0.25 0.125,0.375 L 63.25,75 63.1875,74.9375 63.125,74.875 62.5625,74.9375 Q 62,75 61.5,75 q -0.5,0 -1,0 -0.5,0 -1,0 -0.5,0 -1,0 -0.5,0 -0.875,0.125 -0.375,0.125 -0.5,0.5 Q 57,76 57,76.5 q 0,0.5 -0.125,0.875 -0.125,0.375 -0.5,0.5 Q 56,78 55.5,78 q -0.5,0 -1,0 -0.5,0 -1,0 -0.5,0 -1,0 -0.5,0 -1,0 -0.5,0 -1,0 -0.5,0 -1,0 -0.5,0 -1,0 -0.5,0 -1,0 -0.5,0 -1,0 -0.5,0 -1,0 -0.5,0 -1,0 -0.5,0 -1,0 -0.5,0 -1,0 -0.5,0 -1,0 -0.5,0 -1,0 -0.5,0 -0.875,-0.125 -0.375,-0.125 -0.5,-0.5 Q 39,77 39,76.5 39,76 38.875,75.625 38.75,75.25 38.375,75.125 38,75 37.5,75 37,75 36.4375,74.9375 L 35.875,74.875 35.8125,74.9375 35.75,75 35.875,74.875 Q 36,74.75 36,74.5 V 74.25 74.625 75 74.5 q 0,-0.5 0,-1 0,-0.5 0.125,-0.875"
         id="path37484" />
      <path
         style="fill:#daa866;fill-opacity:1"
         d="M 45,69.5 V 69 h 0.5 q 0.5,0 1,0 0.5,0 1,0 0.5,0 1,0 0.5,0 1,0 0.5,0 1,0 H 51 v 0.5 q 0,0.5 0,1 0,0.5 0,1 V 72 h -0.5 q -0.5,0 -1,0 -0.5,0 -1,0 -0.5,0 -1,0 -0.5,0 -1,0 -0.5,0 -1,0 H 45 v -0.5 q 0,-0.5 0,-1 0,-0.5 0,-1 M 44.875,72 H 45 45.375 45.75 45.5 q -0.25,0 -0.5,0 h -0.25 0.125 m 5.75,0 H 51 51.125 51.25 51 q -0.25,0 -0.5,0 h -0.25 0.375 M 51,69.375 V 69 68.875 68.75 69 q 0,0.25 0,0.5 v 0.25 -0.375 m -6,-0.5 V 69 69.375 69.75 69.5 q 0,-0.25 0,-0.5 v -0.25 0.125"
         id="path37482" />
      <path
         style="fill:#745327;fill-opacity:1"
         d="M 45,66.5 V 66 h 0.5 q 0.5,0 1,0 0.5,0 1,0 0.5,0 1,0 0.5,0 1,0 0.5,0 1,0 H 51 v 0.5 q 0,0.5 0,1 0,0.5 0,1 V 69 h -0.5 q -0.5,0 -1,0 -0.5,0 -1,0 -0.5,0 -1,0 -0.5,0 -1,0 -0.5,0 -1,0 H 45 v -0.5 q 0,-0.5 0,-1 0,-0.5 0,-1 m 0,2.125 V 69 69.125 69.25 69 q 0,-0.25 0,-0.5 v -0.25 0.375 m 6,0.5 V 69 68.625 68.25 68.5 q 0,0.25 0,0.5 v 0.25 -0.125 m 0,-2.75 V 66 65.875 65.75 66 q 0,0.25 0,0.5 v 0.25 -0.375 m -6,-0.5 V 66 66.375 66.75 66.5 q 0,-0.25 0,-0.5 v -0.25 0.125"
         id="path37480" />
      <path
         style="fill:#030513;fill-opacity:1"
         d="m 45,60.5 q 0,-0.5 0.5,-0.5 0.5,0 1,0 0.5,0 1,0 0.5,0 1,0 0.5,0 1,0 0.5,0 1,0 0.5,0 0.5,0.5 0,0.5 0,1 0,0.5 -0.125,0.875 -0.125,0.375 -0.5,0.5 Q 50,63 49.5,63 q -0.5,0 -1,0 -0.5,0 -1,0 -0.5,0 -1,0 -0.5,0 -0.875,-0.125 -0.375,-0.125 -0.5,-0.5 Q 45,62 45,61.5 q 0,-0.5 0,-1"
         id="path37478" />
      <path
         style="fill:#ffffff;fill-opacity:1"
         d="m 42.125,57.625 q 0.125,-0.375 0.5,-0.5 Q 43,57 43.5,57 q 0.5,0 1,0 0.5,0 1,0 0.5,0 1,0 0.5,0 1,0 0.5,0 1,0 0.5,0 1,0 0.5,0 1,0 0.5,0 1,0 0.5,0 1,0 0.5,0 0.875,0.125 0.375,0.125 0.5,0.5 Q 54,58 54,58.5 q 0,0.5 -0.125,0.875 -0.125,0.375 -0.5,0.5 Q 53,60 52.5,60 52,60 51.4375,60.0625 L 50.875,60.125 50.9375,60.1875 51,60.25 50.875,60.125 Q 50.75,60 50.5,60 H 50.25 50.625 51 50.5 q -0.5,0 -1,0 -0.5,0 -1,0 -0.5,0 -1,0 -0.5,0 -1,0 -0.5,0 -1,0 H 45 45.375 45.75 45.5 q -0.25,0 -0.375,0.125 L 45,60.25 45.0625,60.1875 45.125,60.125 44.5625,60.0625 Q 44,60 43.5,60 43,60 42.625,59.875 42.25,59.75 42.125,59.375 42,59 42,58.5 42,58 42.125,57.625"
         id="path37476" />
      <path
         style="fill:#bc917b;fill-opacity:1"
         d="m 42.125,54.625 q 0.125,-0.375 0.5,-0.5 Q 43,54 43.5,54 q 0.5,0 1,0 0.5,0 1,0 0.5,0 1,0 0.5,0 1,0 0.5,0 1,0 0.5,0 1,0 0.5,0 1,0 0.5,0 1,0 0.5,0 1,0 0.5,0 0.875,0.125 0.375,0.125 0.5,0.5 Q 54,55 54,55.5 q 0,0.5 0.125,0.875 0.125,0.375 0.5,0.5 Q 55,57 55.5,57 q 0.5,0 1,0 H 57 v 0.5 q 0,0.5 0,1 0,0.5 -0.125,0.875 -0.125,0.375 -0.5,0.5 Q 56,60 55.5,60 55,60 54.625,60.125 54.25,60.25 54.125,60.625 54,61 54,61.5 q 0,0.5 -0.125,0.875 -0.125,0.375 -0.5,0.5 Q 53,63 52.5,63 52,63 51.625,63.125 51.25,63.25 51.125,63.625 51,64 51,64.5 q 0,0.5 0,1 V 66 h -0.5 q -0.5,0 -1,0 -0.5,0 -1,0 -0.5,0 -1,0 -0.5,0 -1,0 -0.5,0 -1,0 H 45 v -0.5 q 0,-0.5 0,-1 0,-0.5 -0.125,-0.875 -0.125,-0.375 -0.5,-0.5 Q 44,63 43.5,63 43,63 42.625,62.875 42.25,62.75 42.125,62.375 42,62 42,61.5 42,61 41.875,60.625 41.75,60.25 41.375,60.125 41,60 40.5,60 40,60 39.625,59.875 39.25,59.75 39.125,59.375 39,59 39,58.5 39,58 39,57.5 V 57 h 0.5 q 0.5,0 1,0 0.5,0 0.875,-0.125 0.375,-0.125 0.5,-0.5 Q 42,56 42,55.5 42,55 42.125,54.625 M 39,56.875 V 57 57.375 57.75 57.5 q 0,-0.25 0,-0.5 v -0.25 0.125 m 6,8.75 V 66 66.125 66.25 66 q 0,-0.25 0,-0.5 v -0.25 0.375 M 49.5,63 q 0.5,0 0.875,-0.125 0.375,-0.125 0.5,-0.5 Q 51,62 51,61.5 51,61 51,60.5 V 60 60.375 60.75 60.5 q 0,-0.25 -0.125,-0.375 L 50.75,60 l 0.0625,0.0625 0.0625,0.0625 0.5625,-0.0625 Q 52,60 52.5,60 q 0.5,0 0.875,-0.125 0.375,-0.125 0.5,-0.5 Q 54,59 54,58.5 54,58 53.875,57.625 53.75,57.25 53.375,57.125 53,57 52.5,57 q -0.5,0 -1,0 -0.5,0 -1,0 -0.5,0 -1,0 -0.5,0 -1,0 -0.5,0 -1,0 -0.5,0 -1,0 -0.5,0 -1,0 -0.5,0 -1,0 -0.5,0 -1,0 -0.5,0 -0.875,0.125 -0.375,0.125 -0.5,0.5 Q 42,58 42,58.5 q 0,0.5 0.125,0.875 0.125,0.375 0.5,0.5 Q 43,60 43.5,60 44,60 44.5625,60.0625 L 45.125,60.125 45.1875,60.0625 45.25,60 45.125,60.125 Q 45,60.25 45,60.5 V 60.75 60.375 60 60.5 q 0,0.5 0,1 0,0.5 0.125,0.875 0.125,0.375 0.5,0.5 Q 46,63 46.5,63 q 0.5,0 1,0 0.5,0 1,0 0.5,0 1,0 M 51,66.125 V 66 65.625 65.25 65.5 q 0,0.25 0,0.5 v 0.25 -0.125 m 6,-8.75 V 57 56.875 56.75 57 q 0,0.25 0,0.5 v 0.25 -0.375"
         id="path37474" />
      <path
         style="fill:#745327;fill-opacity:1"
         d="m 42.125,51.625 q 0.125,-0.375 0.5,-0.5 Q 43,51 43.5,51 q 0.5,0 1,0 0.5,0 1,0 0.5,0 1,0 0.5,0 1,0 0.5,0 1,0 0.5,0 1,0 0.5,0 1,0 0.5,0 1,0 0.5,0 1,0 0.5,0 0.875,0.125 0.375,0.125 0.5,0.5 Q 54,52 54,52.5 q 0,0.5 0.125,0.875 0.125,0.375 0.5,0.5 Q 55,54 55.5,54 q 0.5,0 0.875,0.125 0.375,0.125 0.5,0.5 Q 57,55 57,55.5 q 0,0.5 0,1 V 57 h -0.5 q -0.5,0 -1,0 -0.5,0 -0.875,-0.125 -0.375,-0.125 -0.5,-0.5 Q 54,56 54,55.5 54,55 53.875,54.625 53.75,54.25 53.375,54.125 53,54 52.5,54 q -0.5,0 -1,0 -0.5,0 -1,0 -0.5,0 -1,0 -0.5,0 -1,0 -0.5,0 -1,0 -0.5,0 -1,0 -0.5,0 -1,0 -0.5,0 -1,0 -0.5,0 -1,0 -0.5,0 -0.875,0.125 -0.375,0.125 -0.5,0.5 Q 42,55 42,55.5 q 0,0.5 -0.125,0.875 -0.125,0.375 -0.5,0.5 Q 41,57 40.5,57 40,57 39.5,57 H 39 v -0.5 q 0,-0.5 0,-1 0,-0.5 0.125,-0.875 0.125,-0.375 0.5,-0.5 Q 40,54 40.5,54 q 0.5,0 0.875,-0.125 0.375,-0.125 0.5,-0.5 Q 42,53 42,52.5 42,52 42.125,51.625 m -3.125,5 V 57 57.125 57.25 57 q 0,-0.25 0,-0.5 v -0.25 0.375 m 18,0.5 V 57 56.625 56.25 56.5 q 0,0.25 0,0.5 v 0.25 -0.125"
         id="path37472" />
      <path
         style="fill:#e3c091;fill-opacity:1"
         d="m 51.125,48.625 q 0.125,-0.375 0.5,-0.5 Q 52,48 52.5,48 q 0.5,0 0.875,0.125 0.375,0.125 0.5,0.5 Q 54,49 54,49.5 q 0,0.5 0.125,0.875 0.125,0.375 0.5,0.5 Q 55,51 55.5,51 q 0.5,0 1,0 0.5,0 1,0 0.5,0 1,0 0.5,0 0.875,-0.125 0.375,-0.125 0.5,-0.5 Q 60,50 60,49.5 60,49 60.125,48.625 60.25,48.25 60.625,48.125 61,48 61.5,48 q 0.5,0 0.875,0.125 0.375,0.125 0.5,0.5 Q 63,49 63,49.5 q 0,0.5 0.125,0.875 0.125,0.375 0.5,0.5 Q 64,51 64.5,51 q 0.5,0 0.875,0.125 0.375,0.125 0.5,0.5 Q 66,52 66,52.5 q 0,0.5 0,1 0,0.5 0,1 0,0.5 0,1 0,0.5 -0.125,0.875 -0.125,0.375 -0.5,0.5 Q 65,57 64.5,57 64,57 63.625,57.125 63.25,57.25 63.125,57.625 63,58 63,58.5 q 0,0.5 0.125,0.875 0.125,0.375 0.5,0.5 Q 64,60 64.5,60 q 0.5,0 1,0 H 66 v 0.5 q 0,0.5 0,1 0,0.5 -0.125,0.875 -0.125,0.375 -0.5,0.5 Q 65,63 64.5,63 64,63 63.625,63.125 63.25,63.25 63.125,63.625 63,64 63,64.5 q 0,0.5 -0.125,0.875 -0.125,0.375 -0.5,0.5 Q 62,66 61.5,66 61,66 60.625,66.125 60.25,66.25 60.125,66.625 60,67 60,67.5 q 0,0.5 -0.125,0.875 -0.125,0.375 -0.5,0.5 Q 59,69 58.5,69 q -0.5,0 -1,0 -0.5,0 -1,0 -0.5,0 -1,0 -0.5,0 -0.875,0.125 -0.375,0.125 -0.5,0.5 Q 54,70 54,70.5 q 0,0.5 -0.125,0.875 -0.125,0.375 -0.5,0.5 Q 53,72 52.5,72 52,72 51.5,72 H 51 v -0.5 q 0,-0.5 0,-1 0,-0.5 0,-1 0,-0.5 0,-1 0,-0.5 0,-1 0,-0.5 0,-1 0,-0.5 0,-1 0,-0.5 0,-1 0,-0.5 0.125,-0.875 0.125,-0.375 0.5,-0.5 Q 52,63 52.5,63 q 0.5,0 0.875,-0.125 0.375,-0.125 0.5,-0.5 Q 54,62 54,61.5 54,61 54.125,60.625 54.25,60.25 54.625,60.125 55,60 55.5,60 q 0.5,0 0.875,-0.125 0.375,-0.125 0.5,-0.5 Q 57,59 57,58.5 q 0,-0.5 0,-1 0,-0.5 0,-1 0,-0.5 0,-1 0,-0.5 -0.125,-0.875 -0.125,-0.375 -0.5,-0.5 Q 56,54 55.5,54 55,54 54.625,53.875 54.25,53.75 54.125,53.375 54,53 54,52.5 54,52 53.875,51.625 53.75,51.25 53.375,51.125 53,51 52.5,51 52,51 51.5,51 H 51 v -0.5 q 0,-0.5 0,-1 0,-0.5 0.125,-0.875 M 50.875,51 H 51 51.375 51.75 51.5 q -0.25,0 -0.5,0 h -0.25 0.125 m 0,21 H 51 51.375 51.75 51.5 q -0.25,0 -0.5,0 h -0.25 0.125 M 66,60.375 V 60 59.875 59.75 60 q 0,0.25 0,0.5 v 0.25 -0.375"
         id="path37470" />
      <path
         style="fill:#030513;fill-opacity:1"
         d="m 45.125,45.625 q 0.125,-0.375 0.5,-0.5 Q 46,45 46.5,45 q 0.5,0 1,0 0.5,0 1,0 0.5,0 1,0 0.5,0 0.875,0.125 0.375,0.125 0.5,0.5 Q 51,46 51,46.5 q 0,0.5 -0.125,0.875 -0.125,0.375 -0.5,0.5 Q 50,48 49.5,48 q -0.5,0 -1,0 -0.5,0 -1,0 -0.5,0 -1,0 -0.5,0 -0.875,-0.125 -0.375,-0.125 -0.5,-0.5 Q 45,47 45,46.5 45,46 45.125,45.625"
         id="path37468" />
      <path
         style="fill:#9a7545;fill-opacity:1"
         d="M 57,39.5 V 39 h 0.5 q 0.5,0 1,0 0.5,0 1,0 0.5,0 1,0 0.5,0 1,0 0.5,0 1,0 H 63 v 0.5 q 0,0.5 0,1 0,0.5 -0.125,0.875 -0.125,0.375 -0.5,0.5 Q 62,42 61.5,42 q -0.5,0 -1,0 -0.5,0 -1,0 -0.5,0 -1,0 -0.5,0 -0.875,-0.125 -0.375,-0.125 -0.5,-0.5 Q 57,41 57,40.5 q 0,-0.5 0,-1 m 6,-0.125 V 39 38.875 38.75 39 q 0,0.25 0,0.5 v 0.25 -0.375"
         id="path37466" />
      <path
         style="fill:#daa866;fill-opacity:1"
         d="M 24,39.5 V 39 h 0.5 q 0.5,0 1,0 0.5,0 0.875,0.125 0.375,0.125 0.5,0.5 Q 27,40 27,40.5 q 0,0.5 -0.125,0.875 -0.125,0.375 -0.5,0.5 Q 26,42 25.5,42 25,42 24.5,42 H 24 v -0.5 q 0,-0.5 0,-1 0,-0.5 0,-1 m 0,2.125 V 42 42.125 42.25 42 q 0,-0.25 0,-0.5 v -0.25 0.375 m 0,-2.75 V 39 39.375 39.75 39.5 q 0,-0.25 0,-0.5 v -0.25 0.125"
         id="path37464" />
      <path
         style="fill:#ffffff;fill-opacity:1"
         d="M 53.875,36.625 53.75,36.25 53.84375,36.53125 53.9375,36.8125 53.875,36.625 q -0.0625,-0.1875 -0.1875,-0.3125 l -0.125,-0.125 0.0625,0.0625 0.0625,0.0625 L 54,36 54.3125,35.6875 54.25,35.625 l -0.0625,-0.0625 0.125,0.125 q 0.125,0.125 0.3125,0.1875 L 54.8125,35.9375 54.53125,35.84375 54.25,35.75 54.625,35.875 Q 55,36 55.5,36 q 0.5,0 0.875,0.125 0.375,0.125 0.5,0.5 Q 57,37 57,37.5 q 0,0.5 0,1 V 39 h -0.5 q -0.5,0 -1,0 -0.5,0 -0.875,-0.125 -0.375,-0.125 -0.5,-0.5 Q 54,38 54,37.5 54,37 53.875,36.625"
         id="path37462" />
      <path
         style="fill:#e3c091;fill-opacity:1"
         d="M 69.0625,33.4375 69.125,32.875 69.0625,32.8125 69,32.75 69.125,32.875 Q 69.25,33 69.5,33 H 69.75 69.375 69 69.5 q 0.5,0 1,0 0.5,0 0.875,0.125 0.375,0.125 0.5,0.5 Q 72,34 72,34.5 q 0,0.5 0,1 V 36 h -0.5 q -0.5,0 -1,0 -0.5,0 -0.875,-0.125 -0.375,-0.125 -0.5,-0.5 Q 69,35 69,34.5 69,34 69.0625,33.4375 M 72,36.125 V 36 35.625 35.25 35.5 q 0,0.25 0,0.5 v 0.25 -0.125"
         id="path37460" />
      <path
         style="fill:#ffffff;fill-opacity:1"
         d="M 63,33.5 V 33 h 0.5 q 0.5,0 1,0 0.5,0 1,0 H 66 v 0.5 q 0,0.5 0,1 0,0.5 -0.125,0.875 -0.125,0.375 -0.5,0.5 Q 65,36 64.5,36 64,36 63.5,36 H 63 v -0.5 q 0,-0.5 0,-1 0,-0.5 0,-1 m 0,2.125 V 36 36.125 36.25 36 q 0,-0.25 0,-0.5 v -0.25 0.375"
         id="path37458" />
      <path
         style="fill:#7fb4be;fill-opacity:1"
         d="m 60,33.5 q 0,-0.5 0.5,-0.5 0.5,0 1,0 0.5,0 1,0 H 63 v 0.5 q 0,0.5 0,1 0,0.5 0,1 0,0.5 0,1 0,0.5 0,1 0,0.5 0,1 V 39 h -0.5 q -0.5,0 -1,0 -0.5,0 -1,0 -0.5,0 -1,0 -0.5,0 -1,0 -0.5,0 -1,0 H 57 v -0.5 q 0,-0.5 0,-1 0,-0.5 -0.125,-0.875 L 56.75,36.25 56.84375,36.53125 56.9375,36.8125 56.875,36.625 q -0.0625,-0.1875 -0.1875,-0.3125 l -0.125,-0.125 0.0625,0.0625 0.0625,0.0625 0.28125,-0.28125 Q 57.25,35.75 57.625,35.875 58,36 58.5,36 q 0.5,0 1,0 0.5,0 0.5,-0.5 0,-0.5 0,-1 0,-0.5 0,-1 m 3,5.625 V 39 38.625 38.25 38.5 q 0,0.25 0,0.5 v 0.25 -0.125"
         id="path37456" />
      <path
         style="fill:#d8d3d3;fill-opacity:1"
         d="m 51.125,33.625 q 0.125,-0.375 0.5,-0.5 Q 52,33 52.5,33 53,33 53.375,32.875 L 53.75,32.75 53.46875,32.84375 53.1875,32.9375 53.375,32.875 q 0.1875,-0.0625 0.3125,-0.1875 l 0.125,-0.125 L 53.75,32.625 53.6875,32.6875 54,33 l 0.3125,0.3125 0.0625,-0.0625 0.0625,-0.0625 -0.125,0.125 q -0.125,0.125 -0.1875,0.3125 L 54.0625,33.8125 54.15625,33.53125 54.25,33.25 54.125,33.625 Q 54,34 54,34.5 54,35 54.125,35.375 L 54.25,35.75 54.15625,35.46875 54.0625,35.1875 54.125,35.375 q 0.0625,0.1875 0.1875,0.3125 l 0.125,0.125 L 54.375,35.75 54.3125,35.6875 54,36 l -0.3125,0.3125 0.0625,0.0625 0.0625,0.0625 -0.125,-0.125 Q 53.5625,36.1875 53.375,36.125 L 53.1875,36.0625 53.46875,36.15625 53.75,36.25 53.375,36.125 Q 53,36 52.5,36 52,36 51.625,35.875 51.25,35.75 51.125,35.375 51,35 51,34.5 51,34 51.125,33.625"
         id="path37454" />
      <path
         style="fill:#7fb4be;fill-opacity:1"
         d="m 30.125,33.625 q 0.125,-0.375 0.5,-0.5 Q 31,33 31.5,33 32,33 32.375,32.875 L 32.75,32.75 32.46875,32.84375 32.1875,32.9375 32.375,32.875 q 0.1875,-0.0625 0.3125,-0.1875 l 0.125,-0.125 -0.0625,0.0625 -0.0625,0.0625 0.28125,0.28125 Q 33.25,33.25 33.125,33.625 33,34 33,34.5 q 0,0.5 0.125,0.875 0.125,0.375 0.5,0.5 Q 34,36 34.5,36 q 0.5,0 1,0 0.5,0 1,0 0.5,0 1,0 0.5,0 1,0 H 39 v 0.5 q 0,0.5 0,1 0,0.5 -0.125,0.875 -0.125,0.375 -0.5,0.5 Q 38,39 37.5,39 q -0.5,0 -1,0 -0.5,0 -1,0 -0.5,0 -1,0 -0.5,0 -1,0 H 33 v -0.5 q 0,-0.5 0,-1 0,-0.5 -0.125,-0.875 -0.125,-0.375 -0.5,-0.5 Q 32,36 31.5,36 31,36 30.625,35.875 30.25,35.75 30.125,35.375 30,35 30,34.5 30,34 30.125,33.625 M 32.875,39 H 33 33.375 33.75 33.5 q -0.25,0 -0.5,0 h -0.25 0.125"
         id="path37452" />
      <path
         style="fill:#ffffff;fill-opacity:1"
         d="M 27,33.5 V 33 h 0.5 q 0.5,0 1,0 0.5,0 0.875,-0.125 0.375,-0.125 0.65625,0.15625 l 0.28125,0.28125 0.0625,-0.0625 0.0625,-0.0625 -0.125,0.125 q -0.125,0.125 -0.1875,0.3125 L 30.0625,33.8125 30.15625,33.53125 30.25,33.25 30.125,33.625 Q 30,34 30,34.5 q 0,0.5 0.125,0.875 0.125,0.375 0.5,0.5 Q 31,36 31.5,36 q 0.5,0 0.875,0.125 0.375,0.125 0.5,0.5 Q 33,37 33,37.5 q 0,0.5 0,1 V 39 h -0.5 q -0.5,0 -1,0 -0.5,0 -0.875,-0.125 -0.375,-0.125 -0.5,-0.5 Q 30,38 30,37.5 30,37 29.875,36.625 29.75,36.25 29.375,36.125 29,36 28.5,36 28,36 27.625,35.875 27.25,35.75 27.125,35.375 27,35 27,34.5 27,34 27,33.5 M 32.625,39 H 33 33.125 33.25 33 q -0.25,0 -0.5,0 h -0.25 0.375"
         id="path37450" />
      <path
         style="fill:#d8d3d3;fill-opacity:1"
         d="M 63,30.5 V 30 h 0.5 q 0.5,0 1,0 0.5,0 1,0 H 66 65.625 65.25 65.5 q 0.25,0 0.375,-0.125 L 66,29.75 65.9375,29.8125 65.875,29.875 65.9375,30.4375 Q 66,31 66,31.5 q 0,0.5 0,1 V 33 h -0.5 q -0.5,0 -1,0 -0.5,0 -1,0 H 63 v -0.5 q 0,-0.5 0,-1 0,-0.5 0,-1"
         id="path37448" />
      <path
         style="fill:#528c9e;fill-opacity:1"
         d="M 57,30.5 V 30 30.375 30.75 30.5 q 0,-0.25 -0.125,-0.375 L 56.75,30 l 0.0625,0.0625 0.0625,0.0625 0.5625,-0.0625 Q 58,30 58.5,30 q 0.5,0 1,0 0.5,0 1,0 0.5,0 1,0 0.5,0 1,0 H 63 v 0.5 q 0,0.5 0,1 0,0.5 0,1 V 33 h -0.5 q -0.5,0 -1,0 -0.5,0 -1,0 -0.5,0 -0.5,0.5 0,0.5 0,1 0,0.5 0,1 0,0.5 -0.5,0.5 -0.5,0 -1,0 -0.5,0 -0.875,-0.125 -0.375,-0.125 -0.65625,0.15625 l -0.28125,0.28125 0.0625,0.0625 0.0625,0.0625 -0.125,-0.125 Q 56.5625,36.1875 56.375,36.125 L 56.1875,36.0625 56.46875,36.15625 56.75,36.25 56.375,36.125 Q 56,36 55.5,36 55,36 54.625,35.875 54.25,35.75 54.125,35.375 54,35 54,34.5 54,34 54.125,33.625 54.25,33.25 54.625,33.125 55,33 55.5,33 q 0.5,0 0.875,-0.125 0.375,-0.125 0.5,-0.5 Q 57,32 57,31.5 q 0,-0.5 0,-1"
         id="path37446" />
      <path
         style="fill:#ffffff;fill-opacity:1"
         d="M 54,30.5 V 30 h 0.5 q 0.5,0 1,0 0.5,0 1,0 0.5,0 0.5,0.5 0,0.5 0,1 0,0.5 -0.125,0.875 -0.125,0.375 -0.5,0.5 Q 56,33 55.5,33 55,33 54.625,33.125 L 54.25,33.25 54.53125,33.15625 54.8125,33.0625 54.625,33.125 q -0.1875,0.0625 -0.3125,0.1875 l -0.125,0.125 L 54.25,33.375 54.3125,33.3125 54,33 53.6875,32.6875 53.625,32.75 l -0.0625,0.0625 0.125,-0.125 q 0.125,-0.125 0.1875,-0.3125 L 53.9375,32.1875 53.84375,32.46875 53.75,32.75 53.875,32.375 Q 54,32 54,31.5 q 0,-0.5 0,-1"
         id="path37444" />
      <path
         style="fill:#ffffff;fill-opacity:1"
         d="M 36,30.5 V 30 h 0.5 q 0.5,0 1,0 0.5,0 1,0 H 39 38.625 38.25 38.5 q 0.25,0 0.375,-0.125 L 39,29.75 38.9375,29.8125 38.875,29.875 38.9375,30.4375 Q 39,31 39,31.5 q 0,0.5 0,1 V 33 h -0.5 q -0.5,0 -1,0 -0.5,0 -0.875,-0.125 -0.375,-0.125 -0.5,-0.5 Q 36,32 36,31.5 q 0,-0.5 0,-1 m 3,2.625 V 33 32.625 32.25 32.5 q 0,0.25 0,0.5 v 0.25 -0.125"
         id="path37442" />
      <path
         style="fill:#528c9e;fill-opacity:1"
         d="M 33,30.5 V 30 h 0.5 q 0.5,0 1,0 0.5,0 1,0 H 36 v 0.5 q 0,0.5 0,1 0,0.5 0.125,0.875 0.125,0.375 0.5,0.5 Q 37,33 37.5,33 q 0.5,0 1,0 H 39 v 0.5 q 0,0.5 0,1 0,0.5 0,1 V 36 h -0.5 q -0.5,0 -1,0 -0.5,0 -1,0 -0.5,0 -1,0 -0.5,0 -1,0 -0.5,0 -0.875,-0.125 -0.375,-0.125 -0.5,-0.5 Q 33,35 33,34.5 33,34 33.125,33.625 33.25,33.25 32.96875,32.96875 L 32.6875,32.6875 32.625,32.75 l -0.0625,0.0625 0.125,-0.125 q 0.125,-0.125 0.1875,-0.3125 L 32.9375,32.1875 32.84375,32.46875 32.75,32.75 32.875,32.375 Q 33,32 33,31.5 q 0,-0.5 0,-1 m 6,2.875 V 33 32.875 32.75 33 q 0,0.25 0,0.5 v 0.25 -0.375 M 33.375,30 H 33 32.875 32.75 33 q 0.25,0 0.5,0 h 0.25 -0.375"
         id="path37440" />
      <path
         style="fill:#d8d3d3;fill-opacity:1"
         d="M 27,30.5 V 30 h 0.5 q 0.5,0 1,0 0.5,0 1,0 0.5,0 1,0 0.5,0 1,0 0.5,0 1,0 H 33 v 0.5 q 0,0.5 0,1 0,0.5 -0.125,0.875 -0.125,0.375 -0.5,0.5 Q 32,33 31.5,33 31,33 30.625,33.125 L 30.25,33.25 30.53125,33.15625 30.8125,33.0625 30.625,33.125 q -0.1875,0.0625 -0.3125,0.1875 l -0.125,0.125 0.0625,-0.0625 0.0625,-0.0625 -0.28125,-0.28125 Q 29.75,32.75 29.375,32.875 29,33 28.5,33 28,33 27.5,33 H 27 v -0.5 q 0,-0.5 0,-1 0,-0.5 0,-1 M 33.125,30 H 33 32.625 32.25 32.5 q 0.25,0 0.5,0 h 0.25 -0.125"
         id="path37438" />
      <path
         style="fill:#daa866;fill-opacity:1"
         d="m 72.125,27.625 q 0.125,-0.375 0.5,-0.5 Q 73,27 73.5,27 q 0.5,0 0.875,0.125 0.375,0.125 0.5,0.5 Q 75,28 75,28.5 q 0,0.5 0,1 0,0.5 0,1 0,0.5 0,1 0,0.5 -0.125,0.875 -0.125,0.375 -0.5,0.5 Q 74,33 73.5,33 73,33 72.625,32.875 72.25,32.75 72.125,32.375 72,32 72,31.5 q 0,-0.5 0,-1 0,-0.5 0,-1 0,-0.5 0,-1 0,-0.5 0.125,-0.875"
         id="path37436" />
      <path
         style="fill:#745327;fill-opacity:1"
         d="m 54.125,27.625 q 0.125,-0.375 0.5,-0.5 Q 55,27 55.5,27 q 0.5,0 1,0 0.5,0 1,0 0.5,0 1,0 0.5,0 1,0 0.5,0 1,0 0.5,0 1,0 0.5,0 0.875,0.125 0.375,0.125 0.5,0.5 Q 63,28 63,28.5 q 0,0.5 0,1 V 30 h -0.5 q -0.5,0 -1,0 -0.5,0 -1,0 -0.5,0 -1,0 -0.5,0 -1,0 -0.5,0 -1.0625,0.0625 L 56.875,30.125 56.9375,30.1875 57,30.25 56.875,30.125 Q 56.75,30 56.5,30 H 56.25 56.625 57 56.5 q -0.5,0 -1,0 -0.5,0 -1,0 H 54 v -0.5 q 0,-0.5 0,-1 0,-0.5 0.125,-0.875"
         id="path37434" />
      <path
         style="fill:#e3c091;fill-opacity:1"
         d="M 39,27.5 V 27 27.375 27.75 27.5 q 0,-0.25 -0.125,-0.375 L 38.75,27 l 0.0625,0.0625 0.0625,0.0625 0.5625,-0.0625 Q 40,27 40.5,27 q 0.5,0 0.875,0.125 0.375,0.125 0.5,0.5 Q 42,28 42,28.5 q 0,0.5 0,1 0,0.5 0,1 0,0.5 0,1 0,0.5 0,1 0,0.5 0,1 0,0.5 0,1 0,0.5 0,1 0,0.5 0,1 0,0.5 0,1 0,0.5 0.125,0.875 0.125,0.375 0.5,0.5 Q 43,39 43.5,39 q 0.5,0 1,0 0.5,0 1,0 0.5,0 1,0 0.5,0 1,0 0.5,0 1,0 0.5,0 1,0 0.5,0 1,0 0.5,0 1,0 0.5,0 1,0 0.5,0 0.875,0.125 0.375,0.125 0.5,0.5 Q 54,40 54,40.5 q 0,0.5 0,1 0,0.5 0,1 0,0.5 0,1 0,0.5 -0.125,0.875 -0.125,0.375 -0.5,0.5 Q 53,45 52.5,45 52,45 51.625,44.875 51.25,44.75 51.125,44.375 51,44 51,43.5 51,43 50.875,42.625 50.75,42.25 50.375,42.125 50,42 49.5,42 q -0.5,0 -1,0 -0.5,0 -1,0 -0.5,0 -1,0 -0.5,0 -0.875,0.125 -0.375,0.125 -0.5,0.5 Q 45,43 45,43.5 q 0,0.5 -0.125,0.875 -0.125,0.375 -0.5,0.5 Q 44,45 43.5,45 43,45 42.625,45.125 42.25,45.25 42.125,45.625 42,46 42,46.5 q 0,0.5 0.125,0.875 0.125,0.375 0.5,0.5 Q 43,48 43.5,48 q 0.5,0 0.875,0.125 0.375,0.125 0.5,0.5 Q 45,49 45,49.5 q 0,0.5 0,1 V 51 h -0.5 q -0.5,0 -1,0 -0.5,0 -0.875,0.125 -0.375,0.125 -0.5,0.5 Q 42,52 42,52.5 q 0,0.5 -0.125,0.875 -0.125,0.375 -0.5,0.5 Q 41,54 40.5,54 40,54 39.625,54.125 39.25,54.25 39.125,54.625 39,55 39,55.5 q 0,0.5 0,1 0,0.5 0,1 0,0.5 0,1 0,0.5 0.125,0.875 0.125,0.375 0.5,0.5 Q 40,60 40.5,60 q 0.5,0 0.875,0.125 0.375,0.125 0.5,0.5 Q 42,61 42,61.5 q 0,0.5 0.125,0.875 0.125,0.375 0.5,0.5 Q 43,63 43.5,63 q 0.5,0 0.875,0.125 0.375,0.125 0.5,0.5 Q 45,64 45,64.5 q 0,0.5 0,1 0,0.5 0,1 0,0.5 0,1 0,0.5 0,1 0,0.5 0,1 0,0.5 0,1 0,0.5 0,1 V 72 h -0.5 q -0.5,0 -1,0 -0.5,0 -0.875,-0.125 -0.375,-0.125 -0.5,-0.5 Q 42,71 42,70.5 42,70 41.875,69.625 41.75,69.25 41.375,69.125 41,69 40.5,69 q -0.5,0 -1,0 -0.5,0 -1,0 -0.5,0 -1,0 -0.5,0 -0.875,-0.125 -0.375,-0.125 -0.5,-0.5 Q 36,68 36,67.5 36,67 35.875,66.625 35.75,66.25 35.375,66.125 35,66 34.5,66 34,66 33.625,65.875 33.25,65.75 33.125,65.375 33,65 33,64.5 33,64 32.875,63.625 32.75,63.25 32.375,63.125 32,63 31.5,63 31,63 30.625,62.875 30.25,62.75 30.125,62.375 30,62 30,61.5 q 0,-0.5 0,-1 0,-0.5 0,-1 0,-0.5 0,-1 0,-0.5 -0.125,-0.875 -0.125,-0.375 -0.5,-0.5 Q 29,57 28.5,57 28,57 27.625,56.875 27.25,56.75 27.125,56.375 27,56 27,55.5 q 0,-0.5 0,-1 0,-0.5 0,-1 0,-0.5 0,-1 0,-0.5 -0.125,-0.875 -0.125,-0.375 -0.5,-0.5 Q 26,51 25.5,51 25,51 24.625,50.875 24.25,50.75 24.125,50.375 24,50 24,49.5 q 0,-0.5 0,-1 0,-0.5 0,-1 0,-0.5 0,-1 0,-0.5 0,-1 0,-0.5 0,-1 0,-0.5 0,-1 0,-0.5 0,-1 V 42 h 0.5 q 0.5,0 1,0 0.5,0 0.875,-0.125 0.375,-0.125 0.5,-0.5 Q 27,41 27,40.5 27,40 26.875,39.625 26.75,39.25 26.375,39.125 26,39 25.5,39 25,39 24.5,39 H 24 v -0.5 q 0,-0.5 0,-1 0,-0.5 0,-1 0,-0.5 0,-1 0,-0.5 0,-1 0,-0.5 0,-1 0,-0.5 0,-1 0,-0.5 0,-1 0,-0.5 0,-1 V 30 h 0.5 q 0.5,0 1,0 0.5,0 1,0 H 27 v 0.5 q 0,0.5 0,1 0,0.5 0,1 v 0.5 0.5 q 0,0.5 0,1 0,0.5 0.125,0.875 0.125,0.375 0.5,0.5 Q 28,36 28.5,36 q 0.5,0 0.875,0.125 0.375,0.125 0.5,0.5 Q 30,37 30,37.5 q 0,0.5 0.125,0.875 0.125,0.375 0.5,0.5 Q 31,39 31.5,39 q 0.5,0 1,0 0.5,0 1,0 0.5,0 1,0 0.5,0 1,0 0.5,0 1,0 0.5,0 1,0 0.5,0 0.875,-0.125 0.375,-0.125 0.5,-0.5 Q 39,38 39,37.5 39,37 39,36.5 V 36 35.5 q 0,-0.5 0,-1 0,-0.5 0,-1 0,-0.5 0,-1 0,-0.5 0,-1 0,-0.5 -0.0625,-1.0625 L 38.875,29.875 38.8125,29.9375 38.75,30 38.875,29.875 Q 39,29.75 39,29.5 V 29.25 29.625 30 29.5 q 0,-0.5 0,-1 0,-0.5 0,-1 M 24,29.875 V 30 30.375 30.75 30.5 q 0,-0.25 0,-0.5 v -0.25 0.125 m 0,8.75 V 39 39.125 39.25 39 q 0,-0.25 0,-0.5 v -0.25 0.375 m 0,3.25 V 42 42.375 42.75 42.5 q 0,-0.25 0,-0.5 v -0.25 0.125 M 44.625,72 H 45 45.125 45.25 45 q -0.25,0 -0.5,0 h -0.25 0.375 m 0,-21 H 45 45.125 45.25 45 q -0.25,0 -0.5,0 h -0.25 0.375"
         id="path37432" />
      <path
         style="fill:#745327;fill-opacity:1"
         d="m 30.125,27.625 q 0.125,-0.375 0.5,-0.5 Q 31,27 31.5,27 q 0.5,0 1,0 0.5,0 1,0 0.5,0 1,0 0.5,0 0.875,0.125 0.375,0.125 0.5,0.5 Q 36,28 36,28.5 q 0,0.5 0,1 V 30 h -0.5 q -0.5,0 -1,0 -0.5,0 -1,0 -0.5,0 -1,0 -0.5,0 -1,0 -0.5,0 -1,0 H 30 v -0.5 q 0,-0.5 0,-1 0,-0.5 0.125,-0.875 M 29.875,30 H 30 30.375 30.75 30.5 q -0.25,0 -0.5,0 h -0.25 0.125"
         id="path37430" />
      <path
         style="fill:#daa866;fill-opacity:1"
         d="m 18.125,27.625 q 0.125,-0.375 0.5,-0.5 Q 19,27 19.5,27 q 0.5,0 0.875,0.125 0.375,0.125 0.5,0.5 Q 21,28 21,28.5 q 0,0.5 0,1 0,0.5 0,1 0,0.5 0,1 0,0.5 -0.125,0.875 -0.125,0.375 -0.5,0.5 Q 20,33 19.5,33 19,33 18.625,32.875 18.25,32.75 18.125,32.375 18,32 18,31.5 q 0,-0.5 0,-1 0,-0.5 0,-1 0,-0.5 0,-1 0,-0.5 0.125,-0.875"
         id="path37428" />
      <path
         style="fill:#daa866;fill-opacity:1"
         d="m 24.125,24.625 q 0.125,-0.375 0.5,-0.5 Q 25,24 25.5,24 q 0.5,0 1,0 H 27 v 0.5 q 0,0.5 0,1 0,0.5 0,1 0,0.5 0,1 0,0.5 0,1 0,0.5 0,1 V 30 h -0.5 q -0.5,0 -1,0 -0.5,0 -1,0 H 24 v -0.5 q 0,-0.5 0,-1 0,-0.5 0,-1 0,-0.5 0,-1 0,-0.5 0,-1 0,-0.5 0.125,-0.875 m -0.125,5 V 30 30.125 30.25 30 q 0,-0.25 0,-0.5 v -0.25 0.375"
         id="path37426" />
      <path
         style="fill:#030513;fill-opacity:1"
         d="m 60.125,21.625 q 0.125,-0.375 0.5,-0.5 Q 61,21 61.5,21 q 0.5,0 1,0 H 63 v 0.5 q 0,0.5 0,1 0,0.5 0,1 0,0.5 0,1 0,0.5 0,1 0,0.5 0.125,0.875 0.125,0.375 0.5,0.5 Q 64,27 64.5,27 q 0.5,0 0.875,0.125 0.375,0.125 0.5,0.5 Q 66,28 66,28.5 q 0,0.5 0,1 0,0.5 -0.5,0.5 -0.5,0 -1,0 -0.5,0 -1,0 H 63 v -0.5 q 0,-0.5 0,-1 0,-0.5 -0.125,-0.875 -0.125,-0.375 -0.5,-0.5 Q 62,27 61.5,27 q -0.5,0 -1,0 -0.5,0 -1,0 -0.5,0 -1,0 -0.5,0 -1,0 -0.5,0 -1,0 -0.5,0 -1,0 -0.5,0 -0.875,0.125 -0.375,0.125 -0.5,0.5 Q 54,28 54,28.5 q 0,0.5 0,1 V 30 h -0.5 q -0.5,0 -1,0 -0.5,0 -0.875,-0.125 -0.375,-0.125 -0.5,-0.5 Q 51,29 51,28.5 51,28 51.125,27.625 51.25,27.25 51.625,27.125 52,27 52.5,27 q 0.5,0 0.875,-0.125 0.375,-0.125 0.5,-0.5 Q 54,26 54,25.5 54,25 54.125,24.625 54.25,24.25 54.625,24.125 55,24 55.5,24 q 0.5,0 1,0 0.5,0 1,0 0.5,0 1,0 0.5,0 0.875,-0.125 0.375,-0.125 0.5,-0.5 Q 60,23 60,22.5 60,22 60.125,21.625"
         id="path37424" />
      <path
         style="fill:#030513;fill-opacity:1"
         d="M 30,21.5 V 21 h 0.5 q 0.5,0 1,0 0.5,0 0.875,0.125 0.375,0.125 0.5,0.5 Q 33,22 33,22.5 q 0,0.5 0.125,0.875 0.125,0.375 0.5,0.5 Q 34,24 34.5,24 q 0.5,0 0.875,0.125 0.375,0.125 0.5,0.5 Q 36,25 36,25.5 q 0,0.5 0.125,0.875 0.125,0.375 0.5,0.5 Q 37,27 37.5,27 q 0.5,0 1,0 0.5,0 0.5,0.5 0,0.5 0,1 0,0.5 0,1 0,0.5 -0.5,0.5 -0.5,0 -1,0 -0.5,0 -1,0 H 36 v -0.5 q 0,-0.5 0,-1 0,-0.5 -0.125,-0.875 -0.125,-0.375 -0.5,-0.5 Q 35,27 34.5,27 q -0.5,0 -1,0 -0.5,0 -1,0 -0.5,0 -1,0 -0.5,0 -0.875,0.125 -0.375,0.125 -0.5,0.5 Q 30,28 30,28.5 q 0,0.5 0,1 V 30 h -0.5 q -0.5,0 -1,0 -0.5,0 -1,0 H 27 v -0.5 q 0,-0.5 0,-1 0,-0.5 0,-1 0,-0.5 0,-1 0,-0.5 0,-1 0,-0.5 0,-1 V 24 h 0.5 q 0.5,0 1,0 0.5,0 0.875,-0.125 0.375,-0.125 0.5,-0.5 Q 30,23 30,22.5 30,22 30,21.5 M 29.625,30 H 30 30.125 30.25 30 q -0.25,0 -0.5,0 h -0.25 0.375"
         id="path37422" />
      <path
         style="fill:#daa866;fill-opacity:1"
         d="m 27.125,21.625 q 0.125,-0.375 0.5,-0.5 Q 28,21 28.5,21 q 0.5,0 1,0 H 30 v 0.5 q 0,0.5 0,1 0,0.5 -0.125,0.875 -0.125,0.375 -0.5,0.5 Q 29,24 28.5,24 28,24 27.5,24 H 27 v -0.5 q 0,-0.5 0,-1 0,-0.5 0.125,-0.875"
         id="path37420" />
      <path
         style="fill:#daa866;fill-opacity:1"
         d="m 30.125,18.625 q 0.125,-0.375 0.5,-0.5 Q 31,18 31.5,18 q 0.5,0 1,0 0.5,0 1,0 0.5,0 1,0 0.5,0 0.875,0.125 0.375,0.125 0.5,0.5 Q 36,19 36,19.5 q 0,0.5 0.125,0.875 0.125,0.375 0.5,0.5 Q 37,21 37.5,21 q 0.5,0 1,0 0.5,0 1,0 0.5,0 1,0 0.5,0 0.875,0.125 0.375,0.125 0.5,0.5 Q 42,22 42,22.5 q 0,0.5 0.125,0.875 0.125,0.375 0.5,0.5 Q 43,24 43.5,24 q 0.5,0 1,0 0.5,0 1,0 0.5,0 1,0 0.5,0 1,0 0.5,0 1,0 0.5,0 1,0 0.5,0 0.875,-0.125 0.375,-0.125 0.5,-0.5 Q 51,23 51,22.5 51,22 51.125,21.625 51.25,21.25 51.625,21.125 52,21 52.5,21 q 0.5,0 1,0 0.5,0 1,0 0.5,0 1,0 0.5,0 0.875,-0.125 0.375,-0.125 0.5,-0.5 Q 57,20 57,19.5 57,19 57.125,18.625 57.25,18.25 57.625,18.125 58,18 58.5,18 q 0.5,0 1,0 0.5,0 1,0 0.5,0 1,0 0.5,0 0.875,0.125 0.375,0.125 0.5,0.5 Q 63,19 63,19.5 q 0,0.5 0,1 V 21 h 0.5 q 0.5,0 1,0 0.5,0 1,0 0.5,0 1,0 0.5,0 1,0 0.5,0 0.875,0.125 0.375,0.125 0.5,0.5 Q 69,22 69,22.5 q 0,0.5 0,1 0,0.5 0,1 0,0.5 0,1 0,0.5 0,1 0,0.5 0,1 0,0.5 0,1 0,0.5 0,1 0,0.5 0,1 0,0.5 0,1 0,0.5 0,1 V 33 32.625 32.25 32.5 q 0,0.25 0.125,0.375 L 69.25,33 69.1875,32.9375 69.125,32.875 69.0625,33.4375 Q 69,34 69,34.5 q 0,0.5 0.125,0.875 0.125,0.375 0.5,0.5 Q 70,36 70.5,36 q 0.5,0 1,0 H 72 v 0.5 q 0,0.5 0,1 0,0.5 0,1 0,0.5 0,1 0,0.5 0,1 0,0.5 0,1 0,0.5 0,1 0,0.5 0,1 0,0.5 0,1 0,0.5 0,1 0,0.5 0,1 0,0.5 0,1 0,0.5 0,1 0,0.5 0,1 0,0.5 -0.125,0.875 -0.125,0.375 -0.5,0.5 Q 71,51 70.5,51 70,51 69.625,51.125 69.25,51.25 69.125,51.625 69,52 69,52.5 q 0,0.5 0,1 0,0.5 0,1 0,0.5 0,1 0,0.5 -0.125,0.875 -0.125,0.375 -0.5,0.5 Q 68,57 67.5,57 67,57 66.625,57.125 66.25,57.25 66.125,57.625 66,58 66,58.5 q 0,0.5 0,1 V 60 h -0.5 q -0.5,0 -1,0 -0.5,0 -0.875,-0.125 -0.375,-0.125 -0.5,-0.5 Q 63,59 63,58.5 63,58 63.125,57.625 63.25,57.25 63.625,57.125 64,57 64.5,57 q 0.5,0 0.875,-0.125 0.375,-0.125 0.5,-0.5 Q 66,56 66,55.5 q 0,-0.5 0,-1 0,-0.5 0,-1 0,-0.5 0,-1 0,-0.5 -0.125,-0.875 -0.125,-0.375 -0.5,-0.5 Q 65,51 64.5,51 64,51 63.625,50.875 63.25,50.75 63.125,50.375 63,50 63,49.5 63,49 62.875,48.625 62.75,48.25 62.375,48.125 62,48 61.5,48 61,48 60.625,48.125 60.25,48.25 60.125,48.625 60,49 60,49.5 q 0,0.5 -0.125,0.875 -0.125,0.375 -0.5,0.5 Q 59,51 58.5,51 q -0.5,0 -1,0 -0.5,0 -1,0 -0.5,0 -1,0 -0.5,0 -0.875,-0.125 -0.375,-0.125 -0.5,-0.5 Q 54,50 54,49.5 54,49 53.875,48.625 53.75,48.25 53.375,48.125 53,48 52.5,48 52,48 51.625,48.125 51.25,48.25 51.125,48.625 51,49 51,49.5 q 0,0.5 0,1 V 51 h -0.5 q -0.5,0 -1,0 -0.5,0 -1,0 -0.5,0 -1,0 -0.5,0 -1,0 -0.5,0 -1,0 H 45 v -0.5 q 0,-0.5 0,-1 0,-0.5 -0.125,-0.875 -0.125,-0.375 -0.5,-0.5 Q 44,48 43.5,48 43,48 42.625,47.875 42.25,47.75 42.125,47.375 42,47 42,46.5 42,46 42.125,45.625 42.25,45.25 42.625,45.125 43,45 43.5,45 q 0.5,0 0.875,-0.125 0.375,-0.125 0.5,-0.5 Q 45,44 45,43.5 45,43 45.125,42.625 45.25,42.25 45.625,42.125 46,42 46.5,42 q 0.5,0 1,0 0.5,0 1,0 0.5,0 1,0 0.5,0 0.875,0.125 0.375,0.125 0.5,0.5 Q 51,43 51,43.5 q 0,0.5 0.125,0.875 0.125,0.375 0.5,0.5 Q 52,45 52.5,45 q 0.5,0 0.875,-0.125 0.375,-0.125 0.5,-0.5 Q 54,44 54,43.5 q 0,-0.5 0,-1 0,-0.5 0,-1 0,-0.5 0,-1 0,-0.5 -0.125,-0.875 -0.125,-0.375 -0.5,-0.5 Q 53,39 52.5,39 q -0.5,0 -1,0 -0.5,0 -1,0 -0.5,0 -1,0 -0.5,0 -1,0 -0.5,0 -1,0 -0.5,0 -1,0 -0.5,0 -1,0 -0.5,0 -1,0 -0.5,0 -1,0 -0.5,0 -0.875,-0.125 -0.375,-0.125 -0.5,-0.5 Q 42,38 42,37.5 q 0,-0.5 0,-1 0,-0.5 0,-1 0,-0.5 0,-1 0,-0.5 0,-1 0,-0.5 0,-1 0,-0.5 0,-1 0,-0.5 0,-1 0,-0.5 0,-1 0,-0.5 0,-1 0,-0.5 -0.125,-0.875 -0.125,-0.375 -0.5,-0.5 Q 41,27 40.5,27 40,27 39.4375,27.0625 L 38.875,27.125 38.9375,27.1875 39,27.25 38.875,27.125 Q 38.75,27 38.5,27 H 38.25 38.625 39 38.5 q -0.5,0 -1,0 -0.5,0 -0.875,-0.125 -0.375,-0.125 -0.5,-0.5 Q 36,26 36,25.5 36,25 35.875,24.625 35.75,24.25 35.375,24.125 35,24 34.5,24 34,24 33.625,23.875 33.25,23.75 33.125,23.375 33,23 33,22.5 33,22 32.875,21.625 32.75,21.25 32.375,21.125 32,21 31.5,21 31,21 30.5,21 H 30 v -0.5 q 0,-0.5 0,-1 0,-0.5 0.125,-0.875 M 44.875,51 H 45 45.375 45.75 45.5 q -0.25,0 -0.5,0 h -0.25 0.125 M 49.5,48 q 0.5,0 0.875,-0.125 0.375,-0.125 0.5,-0.5 Q 51,47 51,46.5 51,46 50.875,45.625 50.75,45.25 50.375,45.125 50,45 49.5,45 q -0.5,0 -1,0 -0.5,0 -1,0 -0.5,0 -1,0 -0.5,0 -0.875,0.125 -0.375,0.125 -0.5,0.5 Q 45,46 45,46.5 q 0,0.5 0.125,0.875 0.125,0.375 0.5,0.5 Q 46,48 46.5,48 q 0.5,0 1,0 0.5,0 1,0 0.5,0 1,0 m 1.125,3 H 51 51.125 51.25 51 q -0.25,0 -0.5,0 h -0.25 0.375 M 66,60.125 V 60 59.625 59.25 59.5 q 0,0.25 0,0.5 v 0.25 -0.125 m 6,-23.75 V 36 35.875 35.75 36 q 0,0.25 0,0.5 v 0.25 -0.375 M 63,21.5 V 21 h -0.5 q -0.5,0 -1,0 -0.5,0 -0.875,0.125 -0.375,0.125 -0.5,0.5 Q 60,22 60,22.5 q 0,0.5 -0.125,0.875 -0.125,0.375 -0.5,0.5 Q 59,24 58.5,24 q -0.5,0 -1,0 -0.5,0 -1,0 -0.5,0 -1,0 -0.5,0 -0.875,0.125 -0.375,0.125 -0.5,0.5 Q 54,25 54,25.5 q 0,0.5 -0.125,0.875 -0.125,0.375 -0.5,0.5 Q 53,27 52.5,27 52,27 51.625,27.125 51.25,27.25 51.125,27.625 51,28 51,28.5 q 0,0.5 0.125,0.875 0.125,0.375 0.5,0.5 Q 52,30 52.5,30 q 0.5,0 1,0 H 54 v 0.5 q 0,0.5 0,1 0,0.5 -0.125,0.875 -0.125,0.375 -0.5,0.5 Q 53,33 52.5,33 52,33 51.625,33.125 51.25,33.25 51.125,33.625 51,34 51,34.5 q 0,0.5 0.125,0.875 0.125,0.375 0.5,0.5 Q 52,36 52.5,36 q 0.5,0 0.875,0.125 0.375,0.125 0.5,0.5 Q 54,37 54,37.5 q 0,0.5 0.125,0.875 0.125,0.375 0.5,0.5 Q 55,39 55.5,39 q 0.5,0 1,0 H 57 v 0.5 q 0,0.5 0,1 0,0.5 0.125,0.875 0.125,0.375 0.5,0.5 Q 58,42 58.5,42 q 0.5,0 1,0 0.5,0 1,0 0.5,0 1,0 0.5,0 0.875,-0.125 0.375,-0.125 0.5,-0.5 Q 63,41 63,40.5 q 0,-0.5 0,-1 0,-0.5 0,-1 0,-0.5 0,-1 0,-0.5 0,-1 V 36 h 0.5 q 0.5,0 1,0 0.5,0 0.875,-0.125 0.375,-0.125 0.5,-0.5 Q 66,35 66,34.5 66,34 66,33.5 V 33 32.5 q 0,-0.5 0,-1 0,-0.5 -0.0625,-1.0625 L 65.875,29.875 65.8125,29.9375 65.75,30 65.875,29.875 Q 66,29.75 66,29.5 V 29.25 29.625 30 29.5 q 0,-0.5 0,-1 0,-0.5 -0.125,-0.875 -0.125,-0.375 -0.5,-0.5 Q 65,27 64.5,27 64,27 63.625,26.875 63.25,26.75 63.125,26.375 63,26 63,25.5 q 0,-0.5 0,-1 0,-0.5 0,-1 0,-0.5 0,-1 0,-0.5 0,-1 m 0,14.375 V 36 36.375 36.75 36.5 q 0,-0.25 0,-0.5 v -0.25 0.125"
         id="path37418" />
      <path
         style="fill:#745327;fill-opacity:1"
         d="M 30.125,6.625 Q 30.25,6.25 30.625,6.125 31,6 31.5,6 q 0.5,0 1,0 0.5,0 1,0 0.5,0 1,0 0.5,0 1,0 0.5,0 1,0 0.5,0 1,0 0.5,0 1,0 0.5,0 1,0 0.5,0 1,0 0.5,0 1,0 0.5,0 1,0 0.5,0 1,0 0.5,0 1,0 0.5,0 1,0 0.5,0 1,0 0.5,0 1,0 0.5,0 1,0 0.5,0 1,0 0.5,0 1,0 0.5,0 1,0 0.5,0 1,0 0.5,0 1,0 0.5,0 1,0 0.5,0 1,0 0.5,0 0.875,0.125 0.375,0.125 0.5,0.5 Q 57,7 57,7.5 57,8 57.125,8.375 57.25,8.75 57.625,8.875 58,9 58.5,9 q 0.5,0 1,0 0.5,0 1,0 0.5,0 1,0 0.5,0 1,0 0.5,0 1,0 0.5,0 1,0 0.5,0 0.875,0.125 0.375,0.125 0.5,0.5 Q 66,10 66,10.5 q 0,0.5 0.125,0.875 0.125,0.375 0.5,0.5 Q 67,12 67.5,12 q 0.5,0 0.875,0.125 0.375,0.125 0.5,0.5 Q 69,13 69,13.5 q 0,0.5 0.125,0.875 0.125,0.375 0.5,0.5 Q 70,15 70.5,15 q 0.5,0 0.875,0.125 0.375,0.125 0.5,0.5 Q 72,16 72,16.5 q 0,0.5 0.125,0.875 0.125,0.375 0.5,0.5 Q 73,18 73.5,18 q 0.5,0 0.875,0.125 0.375,0.125 0.5,0.5 Q 75,19 75,19.5 q 0,0.5 0,1 0,0.5 0,1 0,0.5 0,1 0,0.5 -0.125,0.875 -0.125,0.375 -0.5,0.5 Q 74,24 73.5,24 73,24 72.625,23.875 72.25,23.75 72.125,23.375 72,23 72,22.5 72,22 71.875,21.625 71.75,21.25 71.375,21.125 71,21 70.5,21 70,21 69.625,20.875 69.25,20.75 69.125,20.375 69,20 69,19.5 69,19 68.875,18.625 68.75,18.25 68.375,18.125 68,18 67.5,18 q -0.5,0 -1,0 -0.5,0 -1,0 -0.5,0 -1,0 -0.5,0 -0.875,-0.125 -0.375,-0.125 -0.5,-0.5 Q 63,17 63,16.5 63,16 62.875,15.625 62.75,15.25 62.375,15.125 62,15 61.5,15 q -0.5,0 -1,0 -0.5,0 -1,0 -0.5,0 -1,0 -0.5,0 -0.875,0.125 -0.375,0.125 -0.5,0.5 Q 57,16 57,16.5 q 0,0.5 -0.125,0.875 -0.125,0.375 -0.5,0.5 Q 56,18 55.5,18 q -0.5,0 -1,0 -0.5,0 -1,0 -0.5,0 -1,0 -0.5,0 -0.875,0.125 -0.375,0.125 -0.5,0.5 Q 51,19 51,19.5 q 0,0.5 -0.125,0.875 -0.125,0.375 -0.5,0.5 Q 50,21 49.5,21 q -0.5,0 -1,0 -0.5,0 -1,0 -0.5,0 -1,0 -0.5,0 -1,0 -0.5,0 -1,0 -0.5,0 -1,0 -0.5,0 -0.875,-0.125 -0.375,-0.125 -0.5,-0.5 Q 42,20 42,19.5 42,19 41.875,18.625 41.75,18.25 41.375,18.125 41,18 40.5,18 q -0.5,0 -1,0 -0.5,0 -1,0 -0.5,0 -1,0 -0.5,0 -0.875,-0.125 -0.375,-0.125 -0.5,-0.5 Q 36,17 36,16.5 36,16 35.875,15.625 35.75,15.25 35.375,15.125 35,15 34.5,15 q -0.5,0 -1,0 -0.5,0 -1,0 -0.5,0 -1,0 -0.5,0 -0.875,0.125 -0.375,0.125 -0.5,0.5 Q 30,16 30,16.5 q 0,0.5 -0.125,0.875 -0.125,0.375 -0.5,0.5 Q 29,18 28.5,18 28,18 27.5,18 H 27 v 0.5 q 0,0.5 0,1 0,0.5 -0.125,0.875 -0.125,0.375 -0.5,0.5 Q 26,21 25.5,21 25,21 24.625,21.125 24.25,21.25 24.125,21.625 24,22 24,22.5 q 0,0.5 -0.125,0.875 -0.125,0.375 -0.5,0.5 Q 23,24 22.5,24 22,24 21.625,23.875 21.25,23.75 21.125,23.375 21,23 21,22.5 q 0,-0.5 0,-1 0,-0.5 0,-1 0,-0.5 0,-1 0,-0.5 0,-1 0,-0.5 0,-1 0,-0.5 0,-1 0,-0.5 0,-1 0,-0.5 0,-1 0,-0.5 0,-1 0,-0.5 0.125,-0.875 0.125,-0.375 0.5,-0.5 Q 22,12 22.5,12 q 0.5,0 0.875,-0.125 0.375,-0.125 0.5,-0.5 Q 24,11 24,10.5 24,10 24.125,9.625 24.25,9.25 24.625,9.125 25,9 25.5,9 q 0.5,0 1,0 0.5,0 1,0 0.5,0 1,0 0.5,0 0.875,-0.125 0.375,-0.125 0.5,-0.5 Q 30,8 30,7.5 30,7 30.125,6.625 M 26.5,18 H 27 v -0.5 q 0,-0.5 0,-1 0,-0.5 -0.125,-0.875 -0.125,-0.375 -0.5,-0.5 Q 26,15 25.5,15 25,15 24.625,15.125 24.25,15.25 24.125,15.625 24,16 24,16.5 q 0,0.5 0.125,0.875 0.125,0.375 0.5,0.5 Q 25,18 25.5,18 q 0.5,0 1,0"
         id="path37414" />
      <path
         style="fill:#030513;fill-opacity:1"
         d="M 30,3.5 Q 30,3 30.5,3 q 0.5,0 1,0 0.5,0 1,0 0.5,0 1,0 0.5,0 1,0 0.5,0 1,0 0.5,0 1,0 0.5,0 1,0 0.5,0 1,0 0.5,0 1,0 0.5,0 1,0 0.5,0 1,0 0.5,0 1,0 0.5,0 1,0 0.5,0 1,0 0.5,0 1,0 0.5,0 1,0 0.5,0 1,0 0.5,0 1,0 0.5,0 1,0 0.5,0 1,0 0.5,0 1,0 0.5,0 1,0 0.5,0 1,0 0.5,0 1,0 0.5,0 1,0 0.5,0 1,0 0.5,0 0.5,0.5 0,0.5 0,1 0,0.5 0.125,0.875 0.125,0.375 0.5,0.5 Q 58,6 58.5,6 q 0.5,0 1,0 0.5,0 1,0 0.5,0 1,0 0.5,0 1,0 0.5,0 1,0 0.5,0 1,0 0.5,0 1,0 0.5,0 0.5,0.5 0,0.5 0,1 0,0.5 0.125,0.875 0.125,0.375 0.5,0.5 Q 67,9 67.5,9 q 0.5,0 1,0 0.5,0 0.5,0.5 0,0.5 0,1 0,0.5 0.125,0.875 0.125,0.375 0.5,0.5 Q 70,12 70.5,12 q 0.5,0 1,0 0.5,0 0.5,0.5 0,0.5 0,1 0,0.5 0.125,0.875 0.125,0.375 0.5,0.5 Q 73,15 73.5,15 q 0.5,0 1,0 0.5,0 0.5,0.5 0,0.5 0,1 0,0.5 0.125,0.875 0.125,0.375 0.5,0.5 Q 76,18 76.5,18 q 0.5,0 1,0 0.5,0 0.5,0.5 0,0.5 0,1 0,0.5 0,1 0,0.5 0,1 0,0.5 0,1 0,0.5 0,1 0,0.5 -0.5,0.5 -0.5,0 -1,0 -0.5,0 -0.875,0.125 -0.375,0.125 -0.5,0.5 Q 75,25 75,25.5 q 0,0.5 0.125,0.875 0.125,0.375 0.5,0.5 Q 76,27 76.5,27 q 0.5,0 1,0 0.5,0 0.5,0.5 0,0.5 0,1 0,0.5 0,1 0,0.5 0,1 0,0.5 0,1 0,0.5 0,1 0,0.5 -0.5,0.5 -0.5,0 -1,0 -0.5,0 -0.875,0.125 -0.375,0.125 -0.5,0.5 Q 75,34 75,34.5 q 0,0.5 0,1 0,0.5 0,1 0,0.5 0,1 0,0.5 0,1 0,0.5 0,1 0,0.5 0,1 0,0.5 0,1 0,0.5 0,1 0,0.5 0,1 0,0.5 0,1 0,0.5 0,1 0,0.5 0,1 0,0.5 0,1 0,0.5 0,1 0,0.5 0,1 0,0.5 0,1 0,0.5 -0.5,0.5 -0.5,0 -1,0 -0.5,0 -0.875,0.125 -0.375,0.125 -0.5,0.5 Q 72,52 72,52.5 q 0,0.5 0,1 0,0.5 0,1 0,0.5 0,1 0,0.5 0,1 0,0.5 -0.5,0.5 -0.5,0 -1,0 -0.5,0 -0.875,0.125 -0.375,0.125 -0.5,0.5 Q 69,58 69,58.5 q 0,0.5 0,1 0,0.5 0,1 0,0.5 0,1 0,0.5 0,1 0,0.5 -0.5,0.5 -0.5,0 -1,0 -0.5,0 -0.875,0.125 -0.375,0.125 -0.5,0.5 Q 66,64 66,64.5 q 0,0.5 0,1 0,0.5 -0.5,0.5 -0.5,0 -1,0 -0.5,0 -0.875,0.125 -0.375,0.125 -0.5,0.5 Q 63,67 63,67.5 q 0,0.5 0,1 0,0.5 0,1 0,0.5 0,1 0,0.5 0.125,0.875 0.125,0.375 0.5,0.5 Q 64,72 64.5,72 q 0.5,0 1,0 0.5,0 0.5,0.5 0,0.5 0,1 0,0.5 0.125,0.875 0.125,0.375 0.5,0.5 Q 67,75 67.5,75 q 0.5,0 1,0 0.5,0 0.5,0.5 0,0.5 0,1 0,0.5 0.125,0.875 0.125,0.375 0.5,0.5 Q 70,78 70.5,78 q 0.5,0 1,0 0.5,0 1,0 0.5,0 1,0 0.5,0 1,0 0.5,0 0.5,0.5 0,0.5 0,1 0,0.5 0,1 0,0.5 0.5,0.5 0.5,0 1,0 0.5,0 1,0 0.5,0 0.5,0.5 0,0.5 0,1 0,0.5 0.125,0.875 0.125,0.375 0.5,0.5 Q 79,84 79.5,84 q 0.5,0 1,0 0.5,0 0.5,0.5 0,0.5 0,1 0,0.5 0.125,0.875 0.125,0.375 0.5,0.5 Q 82,87 82.5,87 q 0.5,0 1,0 0.5,0 0.5,0.5 0,0.5 0,1 0,0.5 0,1 0,0.5 0,1 0,0.5 0,1 0,0.5 0,1 0,0.5 0,1 0,0.5 0,1 0,0.5 0,1 V 96 H 83.5 83 82.5 82 81.5 81 v -0.5 q 0,-0.5 0,-1 0,-0.5 0,-1 V 93 92.5 q 0,-0.5 0,-1 0,-0.5 0,-1 0,-0.5 0,-1 0,-0.5 0,-1 0,-0.5 -0.125,-0.875 -0.125,-0.375 -0.5,-0.5 Q 80,87 79.5,87 79,87 78.625,86.875 78.25,86.75 78.125,86.375 78,86 78,85.5 78,85 77.875,84.625 77.75,84.25 77.375,84.125 77,84 76.5,84 76,84 75.625,84.125 75.25,84.25 75.125,84.625 75,85 75,85.5 q 0,0.5 0,1 0,0.5 0,1 0,0.5 0,1 0,0.5 -0.125,0.875 -0.125,0.375 -0.5,0.5 Q 74,90 73.5,90 73,90 72.625,90.125 72.25,90.25 72.125,90.625 72,91 72,91.5 q 0,0.5 -0.125,0.875 -0.125,0.375 -0.5,0.5 Q 71,93 70.5,93 70,93 69.625,93.125 69.25,93.25 69.125,93.625 69,94 69,94.5 q 0,0.5 0,1 V 96 H 68.5 68 67.5 67 66.5 66 65.5 65 64.5 64 63.5 63 v -0.5 q 0,-0.5 0,-1 0,-0.5 0.125,-0.875 0.125,-0.375 0.5,-0.5 Q 64,93 64.5,93 q 0.5,0 0.875,-0.125 0.375,-0.125 0.5,-0.5 Q 66,92 66,91.5 66,91 66.125,90.625 66.25,90.25 66.625,90.125 67,90 67.5,90 q 0.5,0 0.875,-0.125 0.375,-0.125 0.5,-0.5 Q 69,89 69,88.5 q 0,-0.5 0,-1 0,-0.5 0,-1 0,-0.5 0,-1 0,-0.5 0.125,-0.875 0.125,-0.375 0.5,-0.5 Q 70,84 70.5,84 q 0.5,0 0.875,-0.125 0.375,-0.125 0.5,-0.5 Q 72,83 72,82.5 72,82 71.875,81.625 71.75,81.25 71.375,81.125 71,81 70.5,81 70,81 69.625,80.875 69.25,80.75 69.125,80.375 69,80 69,79.5 69,79 68.875,78.625 68.75,78.25 68.375,78.125 68,78 67.5,78 67,78 66.4375,77.9375 L 65.875,77.875 65.8125,77.9375 65.75,78 65.875,77.875 Q 66,77.75 66,77.5 V 77.25 77.625 78 77.5 q 0,-0.5 0,-1 0,-0.5 -0.125,-0.875 -0.125,-0.375 -0.5,-0.5 Q 65,75 64.5,75 64,75 63.5,75 63,75 63,74.5 63,74 63,73.5 63,73 62.875,72.625 62.75,72.25 62.375,72.125 62,72 61.5,72 q -0.5,0 -1,0 -0.5,0 -1,0 -0.5,0 -1,0 -0.5,0 -0.875,0.125 -0.375,0.125 -0.5,0.5 Q 57,73 57,73.5 q 0,0.5 -0.125,0.875 -0.125,0.375 -0.5,0.5 Q 56,75 55.5,75 q -0.5,0 -1,0 -0.5,0 -1,0 -0.5,0 -1,0 -0.5,0 -1,0 -0.5,0 -1,0 -0.5,0 -1,0 -0.5,0 -1,0 -0.5,0 -1,0 -0.5,0 -1,0 -0.5,0 -1,0 -0.5,0 -1,0 -0.5,0 -1,0 -0.5,0 -0.875,-0.125 -0.375,-0.125 -0.5,-0.5 Q 42,74 42,73.5 42,73 41.875,72.625 41.75,72.25 41.375,72.125 41,72 40.5,72 q -0.5,0 -1,0 -0.5,0 -1,0 -0.5,0 -1,0 -0.5,0 -0.875,0.125 -0.375,0.125 -0.5,0.5 Q 36,73 36,73.5 q 0,0.5 0,1 0,0.5 -0.5,0.5 -0.5,0 -1,0 -0.5,0 -0.875,0.125 -0.375,0.125 -0.5,0.5 Q 33,76 33,76.5 q 0,0.5 0,1 V 78 77.625 77.25 77.5 q 0,0.25 0.125,0.375 L 33.25,78 33.1875,77.9375 33.125,77.875 32.5625,77.9375 Q 32,78 31.5,78 31,78 30.625,78.125 30.25,78.25 30.125,78.625 30,79 30,79.5 q 0,0.5 -0.125,0.875 -0.125,0.375 -0.5,0.5 Q 29,81 28.5,81 28,81 27.5,81 H 27 26.5 q -0.5,0 -1,0 -0.5,0 -1,0 -0.5,0 -1,0 -0.5,0 -1,0 -0.5,0 -0.875,0.125 -0.375,0.125 -0.5,0.5 Q 21,82 21,82.5 q 0,0.5 -0.125,0.875 -0.125,0.375 -0.5,0.5 Q 20,84 19.5,84 19,84 18.625,84.125 18.25,84.25 18.125,84.625 18,85 18,85.5 q 0,0.5 0,1 0,0.5 0,1 0,0.5 0,1 0,0.5 0,1 V 90 h -0.5 q -0.5,0 -1,0 -0.5,0 -0.875,0.125 L 15.25,90.25 15.53125,90.15625 15.8125,90.0625 15.625,90.125 q -0.1875,0.0625 -0.3125,0.1875 l -0.125,0.125 0.0625,-0.0625 0.0625,-0.0625 -0.28125,-0.28125 Q 14.75,89.75 14.875,89.375 15,89 15,88.5 q 0,-0.5 0,-1 0,-0.5 0,-1 0,-0.5 0,-1 0,-0.5 0,-1 0,-0.5 0.5,-0.5 0.5,0 1,0 0.5,0 0.875,-0.125 0.375,-0.125 0.5,-0.5 Q 18,83 18,82.5 q 0,-0.5 0,-1 0,-0.5 0.5,-0.5 0.5,0 1,0 0.5,0 0.875,-0.125 0.375,-0.125 0.5,-0.5 Q 21,80 21,79.5 q 0,-0.5 0,-1 0,-0.5 0.5,-0.5 0.5,0 1,0 0.5,0 1,0 0.5,0 1,0 0.5,0 1,0 0.5,0 1,0 0.5,0 1,0 0.5,0 1,0 0.5,0 0.875,-0.125 0.375,-0.125 0.5,-0.5 Q 30,77 30,76.5 q 0,-0.5 0,-1 0,-0.5 0.5,-0.5 0.5,0 1,0 0.5,0 0.875,-0.125 0.375,-0.125 0.5,-0.5 Q 33,74 33,73.5 q 0,-0.5 0,-1 0,-0.5 0.5,-0.5 0.5,0 1,0 0.5,0 0.875,-0.125 0.375,-0.125 0.5,-0.5 Q 36,71 36,70.5 36,70 35.875,69.625 35.75,69.25 35.375,69.125 35,69 34.5,69 34,69 33.5,69 33,69 33,68.5 33,68 33,67.5 33,67 32.875,66.625 32.75,66.25 32.375,66.125 32,66 31.5,66 31,66 30.5,66 30,66 30,65.5 30,65 30,64.5 30,64 29.875,63.625 29.75,63.25 29.375,63.125 29,63 28.5,63 28,63 27.5,63 27,63 27,62.5 q 0,-0.5 0,-1 0,-0.5 0,-1 0,-0.5 0,-1 0,-0.5 0,-1 0,-0.5 -0.125,-0.875 -0.125,-0.375 -0.5,-0.5 Q 26,57 25.5,57 25,57 24.5,57 24,57 24,56.5 q 0,-0.5 0,-1 0,-0.5 0,-1 0,-0.5 0,-1 0,-0.5 0,-1 0,-0.5 -0.125,-0.875 -0.125,-0.375 -0.5,-0.5 Q 23,51 22.5,51 22,51 21.5,51 21,51 21,50.5 q 0,-0.5 0,-1 0,-0.5 0,-1 0,-0.5 0,-1 0,-0.5 0,-1 0,-0.5 0,-1 0,-0.5 0,-1 0,-0.5 0,-1 0,-0.5 0,-1 0,-0.5 0,-1 0,-0.5 0,-1 0,-0.5 0,-1 0,-0.5 0,-1 0,-0.5 0,-1 0,-0.5 0,-1 0,-0.5 -0.5,-0.5 -0.5,0 -1,0 -0.5,0 -1,0 Q 18,36 18,35.5 18,35 18,34.5 18,34 17.875,33.625 17.75,33.25 17.375,33.125 17,33 16.5,33 16,33 15.5,33 15,33 15,32.5 q 0,-0.5 0,-1 0,-0.5 0,-1 0,-0.5 0,-1 0,-0.5 0,-1 0,-0.5 0,-1 0,-0.5 0.5,-0.5 0.5,0 1,0 0.5,0 0.875,-0.125 0.375,-0.125 0.5,-0.5 Q 18,26 18,25.5 q 0,-0.5 0,-1 0,-0.5 0,-1 0,-0.5 0,-1 0,-0.5 0,-1 0,-0.5 0,-1 0,-0.5 0,-1 0,-0.5 0,-1 0,-0.5 0,-1 0,-0.5 0,-1 0,-0.5 0,-1 0,-0.5 0,-1 0,-0.5 0,-1 0,-0.5 0,-1 0,-0.5 0.5,-0.5 0.5,0 1,0 0.5,0 0.875,-0.125 0.375,-0.125 0.5,-0.5 Q 21,11 21,10.5 21,10 21,9.5 21,9 21.5,9 22,9 22.5,9 23,9 23.375,8.875 23.75,8.75 23.875,8.375 24,8 24,7.5 24,7 24,6.5 24,6 24.5,6 q 0.5,0 1,0 0.5,0 1,0 0.5,0 1,0 0.5,0 1,0 0.5,0 0.875,-0.125 0.375,-0.125 0.5,-0.5 Q 30,5 30,4.5 30,4 30,3.5 M 19.5,33 q 0.5,0 0.875,-0.125 0.375,-0.125 0.5,-0.5 Q 21,32 21,31.5 q 0,-0.5 0,-1 0,-0.5 0,-1 0,-0.5 0,-1 0,-0.5 -0.125,-0.875 -0.125,-0.375 -0.5,-0.5 Q 20,27 19.5,27 19,27 18.625,27.125 18.25,27.25 18.125,27.625 18,28 18,28.5 q 0,0.5 0,1 0,0.5 0,1 0,0.5 0,1 0,0.5 0.125,0.875 0.125,0.375 0.5,0.5 Q 19,33 19.5,33 m 33,39 q 0.5,0 0.875,-0.125 0.375,-0.125 0.5,-0.5 Q 54,71 54,70.5 54,70 54.125,69.625 54.25,69.25 54.625,69.125 55,69 55.5,69 q 0.5,0 1,0 0.5,0 1,0 0.5,0 1,0 0.5,0 0.875,-0.125 0.375,-0.125 0.5,-0.5 Q 60,68 60,67.5 60,67 60.125,66.625 60.25,66.25 60.625,66.125 61,66 61.5,66 q 0.5,0 0.875,-0.125 0.375,-0.125 0.5,-0.5 Q 63,65 63,64.5 63,64 63.125,63.625 63.25,63.25 63.625,63.125 64,63 64.5,63 q 0.5,0 0.875,-0.125 0.375,-0.125 0.5,-0.5 Q 66,62 66,61.5 q 0,-0.5 0,-1 0,-0.5 0,-1 0,-0.5 0,-1 0,-0.5 0.125,-0.875 0.125,-0.375 0.5,-0.5 Q 67,57 67.5,57 q 0.5,0 0.875,-0.125 0.375,-0.125 0.5,-0.5 Q 69,56 69,55.5 q 0,-0.5 0,-1 0,-0.5 0,-1 0,-0.5 0,-1 0,-0.5 0.125,-0.875 0.125,-0.375 0.5,-0.5 Q 70,51 70.5,51 q 0.5,0 0.875,-0.125 0.375,-0.125 0.5,-0.5 Q 72,50 72,49.5 q 0,-0.5 0,-1 0,-0.5 0,-1 0,-0.5 0,-1 0,-0.5 0,-1 0,-0.5 0,-1 0,-0.5 0,-1 0,-0.5 0,-1 0,-0.5 0,-1 0,-0.5 0,-1 0,-0.5 0,-1 0,-0.5 0,-1 0,-0.5 0,-1 0,-0.5 0,-1 0,-0.5 0,-1 0,-0.5 0,-1 0,-0.5 -0.125,-0.875 -0.125,-0.375 -0.5,-0.5 Q 71,33 70.5,33 70,33 69.5,33 69,33 69,32.5 q 0,-0.5 0,-1 0,-0.5 0,-1 0,-0.5 0,-1 0,-0.5 0,-1 0,-0.5 0,-1 0,-0.5 0,-1 0,-0.5 0,-1 0,-0.5 0,-1 0,-0.5 0,-1 0,-0.5 0,-1 0,-0.5 -0.125,-0.875 -0.125,-0.375 -0.5,-0.5 Q 68,21 67.5,21 q -0.5,0 -1,0 -0.5,0 -1,0 -0.5,0 -1,0 -0.5,0 -1,0 H 63 v -0.5 q 0,-0.5 0,-1 0,-0.5 -0.125,-0.875 -0.125,-0.375 -0.5,-0.5 Q 62,18 61.5,18 q -0.5,0 -1,0 -0.5,0 -1,0 -0.5,0 -1,0 -0.5,0 -0.875,0.125 -0.375,0.125 -0.5,0.5 Q 57,19 57,19.5 q 0,0.5 -0.125,0.875 -0.125,0.375 -0.5,0.5 Q 56,21 55.5,21 q -0.5,0 -1,0 -0.5,0 -1,0 -0.5,0 -1,0 -0.5,0 -0.875,0.125 -0.375,0.125 -0.5,0.5 Q 51,22 51,22.5 q 0,0.5 -0.125,0.875 -0.125,0.375 -0.5,0.5 Q 50,24 49.5,24 q -0.5,0 -1,0 -0.5,0 -1,0 -0.5,0 -1,0 -0.5,0 -1,0 -0.5,0 -1,0 -0.5,0 -1,0 -0.5,0 -0.875,-0.125 -0.375,-0.125 -0.5,-0.5 Q 42,23 42,22.5 42,22 41.875,21.625 41.75,21.25 41.375,21.125 41,21 40.5,21 q -0.5,0 -1,0 -0.5,0 -1,0 -0.5,0 -1,0 -0.5,0 -0.875,-0.125 -0.375,-0.125 -0.5,-0.5 Q 36,20 36,19.5 36,19 35.875,18.625 35.75,18.25 35.375,18.125 35,18 34.5,18 q -0.5,0 -1,0 -0.5,0 -1,0 -0.5,0 -1,0 -0.5,0 -0.875,0.125 -0.375,0.125 -0.5,0.5 Q 30,19 30,19.5 q 0,0.5 0,1 V 21 h -0.5 q -0.5,0 -1,0 -0.5,0 -0.875,0.125 -0.375,0.125 -0.5,0.5 Q 27,22 27,22.5 q 0,0.5 0,1 V 24 h -0.5 q -0.5,0 -1,0 -0.5,0 -0.875,0.125 -0.375,0.125 -0.5,0.5 Q 24,25 24,25.5 q 0,0.5 0,1 0,0.5 0,1 0,0.5 0,1 0,0.5 0,1 0,0.5 0,1 0,0.5 0,1 0,0.5 0,1 0,0.5 0,1 0,0.5 0,1 0,0.5 0,1 0,0.5 0,1 0,0.5 0,1 0,0.5 0,1 0,0.5 0,1 0,0.5 0,1 0,0.5 0,1 0,0.5 0,1 0,0.5 0,1 0,0.5 0,1 0,0.5 0,1 0,0.5 0,1 0,0.5 0,1 0,0.5 0,1 0,0.5 0,1 0,0.5 0.125,0.875 0.125,0.375 0.5,0.5 Q 25,51 25.5,51 q 0.5,0 0.875,0.125 0.375,0.125 0.5,0.5 Q 27,52 27,52.5 q 0,0.5 0,1 0,0.5 0,1 0,0.5 0,1 0,0.5 0.125,0.875 0.125,0.375 0.5,0.5 Q 28,57 28.5,57 q 0.5,0 0.875,0.125 0.375,0.125 0.5,0.5 Q 30,58 30,58.5 q 0,0.5 0,1 0,0.5 0,1 0,0.5 0,1 0,0.5 0.125,0.875 0.125,0.375 0.5,0.5 Q 31,63 31.5,63 q 0.5,0 0.875,0.125 0.375,0.125 0.5,0.5 Q 33,64 33,64.5 q 0,0.5 0.125,0.875 0.125,0.375 0.5,0.5 Q 34,66 34.5,66 q 0.5,0 0.875,0.125 0.375,0.125 0.5,0.5 Q 36,67 36,67.5 q 0,0.5 0.125,0.875 0.125,0.375 0.5,0.5 Q 37,69 37.5,69 q 0.5,0 1,0 0.5,0 1,0 0.5,0 1,0 0.5,0 0.875,0.125 0.375,0.125 0.5,0.5 Q 42,70 42,70.5 q 0,0.5 0.125,0.875 0.125,0.375 0.5,0.5 Q 43,72 43.5,72 q 0.5,0 1,0 0.5,0 1,0 0.5,0 1,0 0.5,0 1,0 0.5,0 1,0 0.5,0 1,0 0.5,0 1,0 0.5,0 1,0 0.5,0 1,0 m 21,-39 q 0.5,0 0.875,-0.125 0.375,-0.125 0.5,-0.5 Q 75,32 75,31.5 q 0,-0.5 0,-1 0,-0.5 0,-1 0,-0.5 0,-1 0,-0.5 -0.125,-0.875 -0.125,-0.375 -0.5,-0.5 Q 74,27 73.5,27 73,27 72.625,27.125 72.25,27.25 72.125,27.625 72,28 72,28.5 q 0,0.5 0,1 0,0.5 0,1 0,0.5 0,1 0,0.5 0.125,0.875 0.125,0.375 0.5,0.5 Q 73,33 73.5,33 m 0,-9 q 0.5,0 0.875,-0.125 0.375,-0.125 0.5,-0.5 Q 75,23 75,22.5 q 0,-0.5 0,-1 0,-0.5 0,-1 0,-0.5 0,-1 0,-0.5 -0.125,-0.875 -0.125,-0.375 -0.5,-0.5 Q 74,18 73.5,18 73,18 72.625,17.875 72.25,17.75 72.125,17.375 72,17 72,16.5 72,16 71.875,15.625 71.75,15.25 71.375,15.125 71,15 70.5,15 70,15 69.625,14.875 69.25,14.75 69.125,14.375 69,14 69,13.5 69,13 68.875,12.625 68.75,12.25 68.375,12.125 68,12 67.5,12 67,12 66.625,11.875 66.25,11.75 66.125,11.375 66,11 66,10.5 66,10 65.875,9.625 65.75,9.25 65.375,9.125 65,9 64.5,9 64,9 63.5,9 63,9 62.5,9 62,9 61.5,9 61,9 60.5,9 60,9 59.5,9 59,9 58.5,9 58,9 57.625,8.875 57.25,8.75 57.125,8.375 57,8 57,7.5 57,7 56.875,6.625 56.75,6.25 56.375,6.125 56,6 55.5,6 55,6 54.5,6 54,6 53.5,6 53,6 52.5,6 52,6 51.5,6 51,6 50.5,6 50,6 49.5,6 49,6 48.5,6 48,6 47.5,6 47,6 46.5,6 46,6 45.5,6 45,6 44.5,6 44,6 43.5,6 43,6 42.5,6 42,6 41.5,6 41,6 40.5,6 40,6 39.5,6 39,6 38.5,6 38,6 37.5,6 37,6 36.5,6 36,6 35.5,6 35,6 34.5,6 34,6 33.5,6 33,6 32.5,6 32,6 31.5,6 31,6 30.625,6.125 30.25,6.25 30.125,6.625 30,7 30,7.5 30,8 29.875,8.375 29.75,8.75 29.375,8.875 29,9 28.5,9 28,9 27.5,9 27,9 26.5,9 26,9 25.5,9 25,9 24.625,9.125 24.25,9.25 24.125,9.625 24,10 24,10.5 q 0,0.5 -0.125,0.875 -0.125,0.375 -0.5,0.5 Q 23,12 22.5,12 22,12 21.625,12.125 21.25,12.25 21.125,12.625 21,13 21,13.5 q 0,0.5 0,1 0,0.5 0,1 0,0.5 0,1 0,0.5 0,1 0,0.5 0,1 0,0.5 0,1 0,0.5 0,1 0,0.5 0,1 0,0.5 0,1 0,0.5 0.125,0.875 0.125,0.375 0.5,0.5 Q 22,24 22.5,24 q 0.5,0 0.875,-0.125 0.375,-0.125 0.5,-0.5 Q 24,23 24,22.5 24,22 24.125,21.625 24.25,21.25 24.625,21.125 25,21 25.5,21 q 0.5,0 0.875,-0.125 0.375,-0.125 0.5,-0.5 Q 27,20 27,19.5 27,19 27,18.5 V 18 h 0.5 q 0.5,0 1,0 0.5,0 0.875,-0.125 0.375,-0.125 0.5,-0.5 Q 30,17 30,16.5 30,16 30.125,15.625 30.25,15.25 30.625,15.125 31,15 31.5,15 q 0.5,0 1,0 0.5,0 1,0 0.5,0 1,0 0.5,0 0.875,0.125 0.375,0.125 0.5,0.5 Q 36,16 36,16.5 q 0,0.5 0.125,0.875 0.125,0.375 0.5,0.5 Q 37,18 37.5,18 q 0.5,0 1,0 0.5,0 1,0 0.5,0 1,0 0.5,0 0.875,0.125 0.375,0.125 0.5,0.5 Q 42,19 42,19.5 q 0,0.5 0.125,0.875 0.125,0.375 0.5,0.5 Q 43,21 43.5,21 q 0.5,0 1,0 0.5,0 1,0 0.5,0 1,0 0.5,0 1,0 0.5,0 1,0 0.5,0 1,0 0.5,0 0.875,-0.125 0.375,-0.125 0.5,-0.5 Q 51,20 51,19.5 51,19 51.125,18.625 51.25,18.25 51.625,18.125 52,18 52.5,18 q 0.5,0 1,0 0.5,0 1,0 0.5,0 1,0 0.5,0 0.875,-0.125 0.375,-0.125 0.5,-0.5 Q 57,17 57,16.5 57,16 57.125,15.625 57.25,15.25 57.625,15.125 58,15 58.5,15 q 0.5,0 1,0 0.5,0 1,0 0.5,0 1,0 0.5,0 0.875,0.125 0.375,0.125 0.5,0.5 Q 63,16 63,16.5 q 0,0.5 0.125,0.875 0.125,0.375 0.5,0.5 Q 64,18 64.5,18 q 0.5,0 1,0 0.5,0 1,0 0.5,0 1,0 0.5,0 0.875,0.125 0.375,0.125 0.5,0.5 Q 69,19 69,19.5 q 0,0.5 0.125,0.875 0.125,0.375 0.5,0.5 Q 70,21 70.5,21 q 0.5,0 0.875,0.125 0.375,0.125 0.5,0.5 Q 72,22 72,22.5 q 0,0.5 0.125,0.875 0.125,0.375 0.5,0.5 Q 73,24 73.5,24"
         id="path37412" />
      <path
         style="fill:#000000;fill-opacity:0"
         d="M 0,0.5 V 0 H 0.5 1 1.5 2 2.5 3 3.5 4 4.5 5 5.5 6 6.5 7 7.5 8 8.5 9 9.5 10 10.5 11 11.5 12 12.5 13 13.5 14 14.5 15 15.5 16 16.5 17 17.5 18 18.5 19 19.5 20 20.5 21 21.5 22 22.5 23 23.5 24 24.5 25 25.5 26 26.5 27 27.5 28 28.5 29 29.5 30 30.5 31 31.5 32 32.5 33 33.5 34 34.5 35 35.5 36 36.5 37 37.5 38 38.5 39 39.5 40 40.5 41 41.5 42 42.5 43 43.5 44 44.5 45 45.5 46 46.5 47 47.5 48 48.5 49 49.5 50 50.5 51 51.5 52 52.5 53 53.5 54 54.5 55 55.5 56 56.5 57 57.5 58 58.5 59 59.5 60 60.5 61 61.5 62 62.5 63 63.5 64 64.5 65 65.5 66 66.5 67 67.5 68 68.5 69 69.5 70 70.5 71 71.5 72 72.5 73 73.5 74 74.5 75 75.5 76 76.5 77 77.5 78 78.5 79 79.5 80 80.5 81 81.5 82 82.5 83 83.5 84 84.5 85 85.5 86 86.5 87 87.5 88 88.5 89 89.5 90 90.5 91 91.5 92 92.5 93 93.5 94 94.5 95 95.5 96 V 0.5 1 1.5 2 2.5 3 3.5 4 4.5 5 5.5 6 6.5 7 7.5 8 8.5 9 9.5 10 10.5 11 11.5 12 12.5 13 13.5 14 14.5 15 15.5 16 16.5 17 17.5 18 18.5 19 19.5 20 20.5 21 21.5 22 22.5 23 23.5 24 24.5 25 25.5 26 26.5 27 27.5 28 28.5 29 29.5 30 30.5 31 31.5 32 32.5 33 33.5 34 34.5 35 35.5 36 36.5 37 37.5 38 38.5 39 39.5 40 40.5 41 41.5 42 42.5 43 43.5 44 44.5 45 45.5 46 46.5 47 47.5 48 48.5 49 49.5 50 50.5 51 51.5 52 52.5 53 53.5 54 54.5 55 55.5 56 56.5 57 57.5 58 58.5 59 59.5 60 60.5 61 61.5 62 62.5 63 63.5 64 64.5 65 65.5 66 66.5 67 67.5 68 68.5 69 69.5 70 70.5 71 71.5 72 72.5 73 73.5 74 74.5 75 75.5 76 76.5 77 77.5 78 78.5 79 79.5 80 80.5 81 81.5 82 82.5 83 83.5 84 84.5 85 85.5 86 86.5 87 87.5 88 88.5 89 89.5 90 90.5 91 91.5 92 92.5 93 93.5 94 94.5 95 95.5 96 H 95.5 95 94.5 94 93.5 93 92.5 92 91.5 91 90.5 90 89.5 89 88.5 88 87.5 87 86.5 86 85.5 85 84.5 84 v -0.5 q 0,-0.5 0,-1 0,-0.5 0,-1 0,-0.5 0,-1 0,-0.5 0,-1 0,-0.5 0,-1 0,-0.5 0,-1 0,-0.5 0,-1 0,-0.5 0,-1 Q 84,87 83.5,87 83,87 82.5,87 82,87 81.625,86.875 81.25,86.75 81.125,86.375 81,86 81,85.5 81,85 81,84.5 81,84 80.5,84 80,84 79.5,84 79,84 78.625,83.875 78.25,83.75 78.125,83.375 78,83 78,82.5 78,82 78,81.5 78,81 77.5,81 q -0.5,0 -1,0 -0.5,0 -1,0 -0.5,0 -0.5,-0.5 0,-0.5 0,-1 0,-0.5 0,-1 0,-0.5 -0.5,-0.5 -0.5,0 -1,0 -0.5,0 -1,0 -0.5,0 -1,0 -0.5,0 -1,0 -0.5,0 -0.875,-0.125 -0.375,-0.125 -0.5,-0.5 Q 69,77 69,76.5 69,76 69,75.5 69,75 68.5,75 68,75 67.5,75 67,75 66.625,74.875 66.25,74.75 66.125,74.375 66,74 66,73.5 66,73 66,72.5 66,72 65.5,72 65,72 64.5,72 64,72 63.625,71.875 63.25,71.75 63.125,71.375 63,71 63,70.5 q 0,-0.5 0,-1 0,-0.5 0,-1 0,-0.5 0,-1 0,-0.5 0.125,-0.875 0.125,-0.375 0.5,-0.5 Q 64,66 64.5,66 q 0.5,0 1,0 0.5,0 0.5,-0.5 0,-0.5 0,-1 0,-0.5 0.125,-0.875 0.125,-0.375 0.5,-0.5 Q 67,63 67.5,63 q 0.5,0 1,0 0.5,0 0.5,-0.5 0,-0.5 0,-1 0,-0.5 0,-1 0,-0.5 0,-1 0,-0.5 0,-1 0,-0.5 0.125,-0.875 0.125,-0.375 0.5,-0.5 Q 70,57 70.5,57 q 0.5,0 1,0 0.5,0 0.5,-0.5 0,-0.5 0,-1 0,-0.5 0,-1 0,-0.5 0,-1 0,-0.5 0,-1 0,-0.5 0.125,-0.875 0.125,-0.375 0.5,-0.5 Q 73,51 73.5,51 q 0.5,0 1,0 0.5,0 0.5,-0.5 0,-0.5 0,-1 0,-0.5 0,-1 0,-0.5 0,-1 0,-0.5 0,-1 0,-0.5 0,-1 0,-0.5 0,-1 0,-0.5 0,-1 0,-0.5 0,-1 0,-0.5 0,-1 0,-0.5 0,-1 0,-0.5 0,-1 0,-0.5 0,-1 0,-0.5 0,-1 0,-0.5 0,-1 0,-0.5 0,-1 0,-0.5 0,-1 0,-0.5 0.125,-0.875 0.125,-0.375 0.5,-0.5 Q 76,33 76.5,33 q 0.5,0 1,0 0.5,0 0.5,-0.5 0,-0.5 0,-1 0,-0.5 0,-1 0,-0.5 0,-1 0,-0.5 0,-1 0,-0.5 0,-1 Q 78,27 77.5,27 77,27 76.5,27 76,27 75.625,26.875 75.25,26.75 75.125,26.375 75,26 75,25.5 75,25 75.125,24.625 75.25,24.25 75.625,24.125 76,24 76.5,24 q 0.5,0 1,0 0.5,0 0.5,-0.5 0,-0.5 0,-1 0,-0.5 0,-1 0,-0.5 0,-1 0,-0.5 0,-1 0,-0.5 0,-1 Q 78,18 77.5,18 77,18 76.5,18 76,18 75.625,17.875 75.25,17.75 75.125,17.375 75,17 75,16.5 75,16 75,15.5 75,15 74.5,15 74,15 73.5,15 73,15 72.625,14.875 72.25,14.75 72.125,14.375 72,14 72,13.5 72,13 72,12.5 72,12 71.5,12 71,12 70.5,12 70,12 69.625,11.875 69.25,11.75 69.125,11.375 69,11 69,10.5 69,10 69,9.5 69,9 68.5,9 68,9 67.5,9 67,9 66.625,8.875 66.25,8.75 66.125,8.375 66,8 66,7.5 66,7 66,6.5 66,6 65.5,6 65,6 64.5,6 64,6 63.5,6 63,6 62.5,6 62,6 61.5,6 61,6 60.5,6 60,6 59.5,6 59,6 58.5,6 58,6 57.625,5.875 57.25,5.75 57.125,5.375 57,5 57,4.5 57,4 57,3.5 57,3 56.5,3 56,3 55.5,3 55,3 54.5,3 54,3 53.5,3 53,3 52.5,3 52,3 51.5,3 51,3 50.5,3 50,3 49.5,3 49,3 48.5,3 48,3 47.5,3 47,3 46.5,3 46,3 45.5,3 45,3 44.5,3 44,3 43.5,3 43,3 42.5,3 42,3 41.5,3 41,3 40.5,3 40,3 39.5,3 39,3 38.5,3 38,3 37.5,3 37,3 36.5,3 36,3 35.5,3 35,3 34.5,3 34,3 33.5,3 33,3 32.5,3 32,3 31.5,3 31,3 30.5,3 30,3 30,3.5 30,4 30,4.5 30,5 29.875,5.375 29.75,5.75 29.375,5.875 29,6 28.5,6 28,6 27.5,6 27,6 26.5,6 26,6 25.5,6 25,6 24.5,6 24,6 24,6.5 24,7 24,7.5 24,8 23.875,8.375 23.75,8.75 23.375,8.875 23,9 22.5,9 22,9 21.5,9 21,9 21,9.5 q 0,0.5 0,1 0,0.5 -0.125,0.875 -0.125,0.375 -0.5,0.5 Q 20,12 19.5,12 q -0.5,0 -1,0 -0.5,0 -0.5,0.5 0,0.5 0,1 0,0.5 0,1 0,0.5 0,1 0,0.5 0,1 0,0.5 0,1 0,0.5 0,1 0,0.5 0,1 0,0.5 0,1 0,0.5 0,1 0,0.5 0,1 0,0.5 0,1 0,0.5 0,1 0,0.5 0,1 0,0.5 -0.125,0.875 -0.125,0.375 -0.5,0.5 Q 17,27 16.5,27 q -0.5,0 -1,0 -0.5,0 -0.5,0.5 0,0.5 0,1 0,0.5 0,1 0,0.5 0,1 0,0.5 0,1 0,0.5 0,1 0,0.5 0.5,0.5 0.5,0 1,0 0.5,0 0.875,0.125 0.375,0.125 0.5,0.5 Q 18,34 18,34.5 q 0,0.5 0,1 0,0.5 0.5,0.5 0.5,0 1,0 0.5,0 1,0 0.5,0 0.5,0.5 0,0.5 0,1 0,0.5 0,1 0,0.5 0,1 0,0.5 0,1 0,0.5 0,1 0,0.5 0,1 0,0.5 0,1 0,0.5 0,1 0,0.5 0,1 0,0.5 0,1 0,0.5 0,1 0,0.5 0,1 0,0.5 0,1 0,0.5 0,1 0,0.5 0.5,0.5 0.5,0 1,0 0.5,0 0.875,0.125 0.375,0.125 0.5,0.5 Q 24,52 24,52.5 q 0,0.5 0,1 0,0.5 0,1 0,0.5 0,1 0,0.5 0,1 0,0.5 0.5,0.5 0.5,0 1,0 0.5,0 0.875,0.125 0.375,0.125 0.5,0.5 Q 27,58 27,58.5 q 0,0.5 0,1 0,0.5 0,1 0,0.5 0,1 0,0.5 0,1 0,0.5 0.5,0.5 0.5,0 1,0 0.5,0 0.875,0.125 0.375,0.125 0.5,0.5 Q 30,64 30,64.5 q 0,0.5 0,1 0,0.5 0.5,0.5 0.5,0 1,0 0.5,0 0.875,0.125 0.375,0.125 0.5,0.5 Q 33,67 33,67.5 q 0,0.5 0,1 0,0.5 0.5,0.5 0.5,0 1,0 0.5,0 0.875,0.125 0.375,0.125 0.5,0.5 Q 36,70 36,70.5 q 0,0.5 -0.125,0.875 -0.125,0.375 -0.5,0.5 Q 35,72 34.5,72 q -0.5,0 -1,0 -0.5,0 -0.5,0.5 0,0.5 0,1 0,0.5 -0.125,0.875 -0.125,0.375 -0.5,0.5 Q 32,75 31.5,75 q -0.5,0 -1,0 -0.5,0 -0.5,0.5 0,0.5 0,1 0,0.5 -0.125,0.875 -0.125,0.375 -0.5,0.5 Q 29,78 28.5,78 q -0.5,0 -1,0 -0.5,0 -1,0 -0.5,0 -1,0 -0.5,0 -1,0 -0.5,0 -1,0 -0.5,0 -1,0 -0.5,0 -1,0 -0.5,0 -0.5,0.5 0,0.5 0,1 0,0.5 -0.125,0.875 -0.125,0.375 -0.5,0.5 Q 20,81 19.5,81 q -0.5,0 -1,0 -0.5,0 -0.5,0.5 0,0.5 0,1 0,0.5 -0.125,0.875 -0.125,0.375 -0.5,0.5 Q 17,84 16.5,84 q -0.5,0 -1,0 -0.5,0 -0.5,0.5 0,0.5 0,1 0,0.5 0,1 0,0.5 0,1 0,0.5 0,1 0,0.5 -0.125,0.875 -0.125,0.375 0.15625,0.65625 l 0.28125,0.28125 0.0625,-0.0625 0.0625,-0.0625 -0.125,0.125 q -0.125,0.125 -0.1875,0.3125 L 15.0625,90.8125 15.15625,90.53125 15.25,90.25 15.125,90.625 Q 15,91 15,91.5 q 0,0.5 -0.125,0.875 -0.125,0.375 -0.5,0.5 Q 14,93 13.5,93 13,93 12.625,93.125 12.25,93.25 12.125,93.625 12,94 12,94.5 q 0,0.5 0,1 V 96 H 11.5 11 10.5 10 9.5 9 8.5 8 7.5 7 6.5 6 5.5 5 4.5 4 3.5 3 2.5 2 1.5 1 0.5 0 V 95.5 95 94.5 94 93.5 93 92.5 92 91.5 91 90.5 90 89.5 89 88.5 88 87.5 87 86.5 86 85.5 85 84.5 84 83.5 83 82.5 82 81.5 81 80.5 80 79.5 79 78.5 78 77.5 77 76.5 76 75.5 75 74.5 74 73.5 73 72.5 72 71.5 71 70.5 70 69.5 69 68.5 68 67.5 67 66.5 66 65.5 65 64.5 64 63.5 63 62.5 62 61.5 61 60.5 60 59.5 59 58.5 58 57.5 57 56.5 56 55.5 55 54.5 54 53.5 53 52.5 52 51.5 51 50.5 50 49.5 49 48.5 48 47.5 47 46.5 46 45.5 45 44.5 44 43.5 43 42.5 42 41.5 41 40.5 40 39.5 39 38.5 38 37.5 37 36.5 36 35.5 35 34.5 34 33.5 33 32.5 32 31.5 31 30.5 30 29.5 29 28.5 28 27.5 27 26.5 26 25.5 25 24.5 24 23.5 23 22.5 22 21.5 21 20.5 20 19.5 19 18.5 18 17.5 17 16.5 16 15.5 15 14.5 14 13.5 13 12.5 12 11.5 11 10.5 10 9.5 9 8.5 8 7.5 7 6.5 6 5.5 5 4.5 4 3.5 3 2.5 2 1.5 1 0.5"
         id="path37410" />
      <rect
         style="fill:#745327;fill-opacity:1"
         id="rect37918"
         width="4.0662122"
         height="3.4118793"
         x="23.208656"
         y="14.753193" />
    </g>
  </g>
</svg>
